<svg xmlns="http://www.w3.org/2000/svg" viewBox="0 0 32 32"><g fill="#101820" data-name="15-air-conditioner"><path d="M26 17a1 1 0 0 1-1-1 8.85 8.85 0 0 0-.41-2.7 9 9 0 0 0-5.89-5.89 1 1 0 0 1 .6-1.91 11 11 0 0 1 7.19 7.19A10.86 10.86 0 0 1 27 16a1 1 0 0 1-1 1zm-13 9.54a1 1 0 0 1-.3 0 11 11 0 0 1-7.19-7.24A10.86 10.86 0 0 1 5 16a1 1 0 0 1 2 0 8.85 8.85 0 0 0 .41 2.7 9 9 0 0 0 5.89 5.89 1 1 0 0 1-.3 2zM6.46 14a1 1 0 0 1-.3 0 1 1 0 0 1-.65-1.25A11 11 0 0 1 16 5a1 1 0 0 1 0 2 8.93 8.93 0 0 0-2.7.41 9 9 0 0 0-5.89 5.89 1 1 0 0 1-.95.7zM16 27a1 1 0 0 1 0-2 8.93 8.93 0 0 0 2.7-.41 9 9 0 0 0 5.89-5.89 1 1 0 1 1 1.91.6A11 11 0 0 1 16 27z"/><path d="M3 21a1 1 0 0 1-.8-1.6l3-4a1 1 0 1 1 1.6 1.2l-3 4a1 1 0 0 1-.8.4zm23-4a1 1 0 0 1-.8-1.6l3-4a1 1 0 1 1 1.6 1.2l-3 4a1 1 0 0 1-.8.4zm-6 13a1 1 0 0 1-.6-.2l-4-3a1 1 0 1 1 1.2-1.6l4 3A1 1 0 0 1 20 30zM16 7a1 1 0 0 1-.6-.2l-4-3a1 1 0 1 1 1.2-1.6l4 3A1 1 0 0 1 16 7zm7 10H9a1 1 0 0 1 0-2h14a1 1 0 0 1 0 2z"/><path d="M16 24a1 1 0 0 1-1-1V9a1 1 0 0 1 2 0v14a1 1 0 0 1-1 1Z"/><path d="M16 14a1 1 0 0 1-.71-.29l-3-3A1 1 0 0 1 13.7 9.3l2.3 2.29 2.29-2.29a1 1 0 0 1 1.41 1.41l-3 3a1 1 0 0 1-.7.29zm3 9a1 1 0 0 1-.71-.29L16 20.41l-2.29 2.29a1 1 0 0 1-1.41-1.41l3-3a1 1 0 0 1 1.41 0l3 3A1 1 0 0 1 19 23zm-9-3a1 1 0 0 1-.71-1.71l2.3-2.29-2.3-2.29a1 1 0 0 1 1.41-1.41l3 3a1 1 0 0 1 0 1.41l-3 3a1 1 0 0 1-.7.29zm12 0a1 1 0 0 1-.71-.29l-3-3a1 1 0 0 1 0-1.41l3-3a1 1 0 0 1 1.41 1.41L20.41 16l2.29 2.29A1 1 0 0 1 22 20z"/></g></svg>