<svg xmlns="http://www.w3.org/2000/svg" data-name="Layer 1" viewBox="0 0 512 512"><g data-name="&lt;Group&gt;"><path fill="#00acea" d="M442.852,138H348v16h94.852A37.275,37.275,0,0,1,480,191.146V346H467v-9.026C467,307.736,442.823,284,413.586,284H412V240.673A7.711,7.711,0,0,0,404.019,233H283.577A7.375,7.375,0,0,0,276,240.673V284H236V240.673A7.375,7.375,0,0,0,228.423,233H107.981A7.711,7.711,0,0,0,100,240.673V284H98.414C69.177,284,45,307.736,45,336.974V346H32V191.146A37.275,37.275,0,0,1,69.148,154H164V138H69.148A53.294,53.294,0,0,0,16,191.146V354.359c0,4.418,3.7,7.641,8.123,7.641H45v77.906A8.423,8.423,0,0,0,53.39,448H73v18.921A8.283,8.283,0,0,0,81.248,475h99.617A8.184,8.184,0,0,0,189,466.921V448H323v18.921A8.184,8.184,0,0,0,331.135,475h99.617A8.283,8.283,0,0,0,439,466.921V448h19.61a8.423,8.423,0,0,0,8.39-8.094V362h20.877c4.418,0,8.123-3.223,8.123-7.641V191.146A53.294,53.294,0,0,0,442.852,138ZM292,249H396v35H292Zm-176,0H220v35H116Zm57,210H89V448h84Zm250,0H339V448h84Zm28-27H61V336.974C61,316.559,78,300,98.414,300H413.586C434,300,451,316.559,451,336.974Z" data-name="&lt;Compound Path&gt;"/></g><path fill="#00efd1" d="M362.37,91.134C355.807,58.6,332.16,37.58,302.128,37.58c-14.765,0-30.592,5.351-46.064,15.527C240.4,42.468,224.8,37.079,209.612,37.079c-30.216,0-53.771,21.254-60.006,54.129-8.876,46.265,18.891,107.518,100.932,140.07.138.055.276.106.417.153a14.385,14.385,0,0,0,10.081,0c.158-.054.316-.112.471-.174,82.014-33.229,109.761-94.29,100.875-140.066ZM255.99,216.228c-73.2-29.217-98.289-82.293-90.667-122.022,4.811-25.368,21.781-41.127,44.289-41.127,13,0,27.383,5.607,41.6,16.213a8,8,0,0,0,9.483.062C274.913,59.035,289.24,53.58,302.128,53.58c22.409,0,39.478,15.592,44.553,40.691C357.222,148.683,308.808,194.665,255.99,216.228Z" data-name="&lt;Compound Path&gt;"/></svg>