<svg xmlns="http://www.w3.org/2000/svg" xmlns:xlink="http://www.w3.org/1999/xlink" width="512" height="512"><defs><path id="a" d="M5.11 453.137h157.457V5.133H5.11z"/><path id="c" d="M5.11 334.624h157.457V.517H5.11z"/><path id="e" d="M162.564.363H5.11v81.455h157.454z"/></defs><g fill="none" fill-rule="evenodd"><path fill="#E42E44" d="M430.122 225.049c0 31.963-25.898 57.869-57.837 57.869-31.945 0-57.843-25.906-57.843-57.87 0-31.963 57.843-92.704 57.843-92.704s57.837 60.741 57.837 92.705"/><path fill="#2E2E30" d="M372.282 147.802c-20.826 23.452-47.386 59.312-47.386 77.25 0 26.142 21.258 47.412 47.386 47.412 26.135 0 47.392-21.27 47.392-47.413 0-17.937-26.566-53.797-47.392-77.249m0 145.576c-37.652 0-68.288-30.653-68.288-68.327 0-35.128 54.5-93.388 60.721-99.92 3.944-4.148 11.19-4.148 15.134 0 6.221 6.532 60.728 64.792 60.728 99.92 0 37.674-30.643 68.327-68.295 68.327"/><path fill="#040605" d="M379.327 140.085c12.2 17.282 22.923 36.355 22.923 50.11 0 31.956-25.891 57.869-57.837 57.869-10.033 0-19.467-2.559-27.689-7.062 6.926 24.197 29.152 41.919 55.559 41.919 31.945 0 57.836-25.913 57.836-57.87 0-25.048-35.422-67.656-50.792-84.966" opacity=".15"/><path fill="#FEFEFE" d="M190.267 501.181h-7.183c-35.723 0-64.686-28.98-64.686-64.722V74.09h136.555v362.37c0 35.742-28.964 64.722-64.686 64.722"/><g transform="translate(102.837 58.502)"><mask id="b" fill="#fff"><use xlink:href="#a"/></mask><path fill="#2E2E30" d="M26.012 26.047v351.906c0 29.921 24.33 54.272 54.235 54.272h7.176c29.905 0 54.242-24.351 54.242-54.272V26.047H26.012Zm61.411 427.092h-7.176c-41.429 0-75.137-33.727-75.137-75.186V15.59c0-5.78 4.682-10.457 10.451-10.457h136.555c5.77 0 10.451 4.678 10.451 10.457v362.363c0 41.459-33.708 75.186-75.144 75.186Z" mask="url(#b)"/></g><path fill="#E42E44" d="M118.4 187.99v242.204c0 36.579 27.57 68.668 64.058 70.857 39.617 2.384 72.496-29.057 72.496-68.187V187.99H118.4Z"/><g transform="translate(102.837 177.015)"><mask id="d" fill="#fff"><use xlink:href="#c"/></mask><path fill="#2E2E30" d="M26.012 21.431V253.18c0 32.055 23.822 58.587 54.235 60.42 16.109.893 31.5-4.572 43.226-15.615 11.733-11.056 18.192-26.017 18.192-42.135V21.431H26.012Zm57.9 313.194c-1.638 0-3.268-.048-4.92-.153C37.565 331.99 5.11 296.276 5.11 253.18V10.974C5.11 5.195 9.792.517 15.56.517h136.555c5.77 0 10.451 4.678 10.451 10.457V255.85c0 21.625-9.022 42.533-24.762 57.36-14.764 13.908-33.75 21.416-53.893 21.416Z" mask="url(#d)"/></g><path fill="#3D3D3D" d="M240.161 74.092H133.19l-14.792-60.546h136.555z"/><g transform="translate(102.837 2.731)"><mask id="f" fill="#fff"><use xlink:href="#e"/></mask><path fill="#2E2E30" d="M38.56 60.904h90.555l9.685-39.632H28.875l9.684 39.632Zm98.763 20.914H30.352A10.45 10.45 0 0 1 20.2 73.842L5.408 13.303A10.462 10.462 0 0 1 7.345 4.36 10.435 10.435 0 0 1 15.56.358h136.555c3.212 0 6.236 1.478 8.221 4.001a10.482 10.482 0 0 1 1.93 8.944l-14.792 60.54a10.45 10.45 0 0 1-10.151 7.975Z" mask="url(#f)"/></g><path fill="#040605" d="m220.116 13.548-14.792 60.546h34.837l14.792-60.546z" opacity=".15"/><path fill="#E42E44" d="M78.451 74.092h216.451"/><path fill="#2E2E30" d="M294.898 84.55H78.454c-5.776 0-10.451-4.679-10.451-10.458 0-5.78 4.675-10.457 10.451-10.457h216.444c5.769 0 10.451 4.678 10.451 10.457 0 5.78-4.682 10.457-10.451 10.457"/><path fill="#040605" d="M213.148 74.092v362.363c0 29.74-20.066 54.725-47.372 62.31 5.519 1.534 11.302 2.419 17.308 2.419h7.183c35.722 0 64.686-28.98 64.686-64.729V74.092h-41.805Z" opacity=".15"/><path fill="#E42E44" d="M399.565 398.46c0 23.445-19 42.456-42.432 42.456-23.438 0-42.432-19.01-42.432-42.455 0-23.445 42.432-68.013 42.432-68.013s42.432 44.568 42.432 68.013"/><path fill="#2E2E30" d="M357.135 346.001c-15.147 17.443-31.987 41.145-31.987 52.46 0 17.651 14.353 31.998 31.987 31.998 17.635 0 31.98-14.347 31.98-31.998 0-11.343-16.832-35.031-31.98-52.46m0 105.372c-29.165 0-52.89-23.737-52.89-52.912 0-26.303 37.757-67.274 45.324-75.228a10.447 10.447 0 0 1 7.566-3.235c2.857 0 5.595 1.164 7.567 3.235 7.567 7.954 45.316 48.925 45.316 75.228 0 29.175-23.724 52.912-52.883 52.912"/><path fill="#040605" d="M362.3 336.129c8.953 12.673 16.819 26.672 16.819 36.76 0 23.451-19 42.455-42.432 42.455a42.154 42.154 0 0 1-20.317-5.18c5.086 17.75 21.39 30.75 40.76 30.75 23.438 0 42.432-19.003 42.432-42.455 0-18.376-25.99-49.629-37.262-62.33" opacity=".15"/></g></svg>