<svg xmlns="http://www.w3.org/2000/svg" width="28" height="28"><circle cx="14" cy="14" r="14" fill="#239fdb" fill-rule="evenodd"/><path fill="#fff" d="M11 8c-.3 0-.5.2-.5.5V10h-3c-.767 0-1.5.622-1.5 1.5v7c0 .878.733 1.5 1.5 1.5h12c.767 0 1.5-.622 1.5-1.5v-7c0-.417-.193-.775-.459-1.041-.266-.266-.624-.459-1.041-.459h-3V8.5c0-.3-.2-.5-.5-.5h-5zm.5 1h4v1h-4V9zm-4 2h12c.083 0 .225.057.334.166.109.109.166.25.166.334v2c0 .189-.055.297-.129.371-.074.074-.182.129-.371.129h-4c0-.261-.095-.528-.283-.717A1.018 1.018 0 0 0 14.5 13h-2c-.261 0-.528.095-.717.283A1.018 1.018 0 0 0 11.5 14h-4c-.189 0-.297-.055-.371-.129C7.055 13.797 7 13.69 7 13.5v-2c0-.322.267-.5.5-.5Zm5 3h2v1h-2v-1zm-5.5.918c.16.05.327.082.5.082h4c0 .261.095.528.283.717.189.188.456.283.717.283h2c.261 0 .528-.095.717-.283.188-.189.283-.456.283-.717h4c.173 0 .34-.031.5-.082V18.5c0 .322-.267.5-.5.5h-12a.497.497 0 0 1-.5-.5v-3.582z" color="#000" font-family="sans-serif" font-weight="400" overflow="visible" style="line-height:normal;text-indent:0;text-align:start;text-decoration-line:none;text-decoration-style:solid;text-decoration-color:#000;text-transform:none;block-progression:tb;isolation:auto;mix-blend-mode:normal"/></svg>