<svg xmlns="http://www.w3.org/2000/svg" data-name="Cash on delivery" viewBox="0 0 64 64"><path fill="#fc4847" d="M45,19v10H13V13h27c-1.66,0-3,1.34-3,3,0,.83,.34,1.58,.88,2.12s1.29,.88,2.12,.88h5Z"/><path fill="#fcddad" d="M39,26H19c-.27,0-.52-.11-.71-.29l-2-2c-.19-.19-.29-.44-.29-.71v-4c0-.27,.11-.52,.29-.71l2-2c.19-.19,.44-.29,.71-.29h18.18c.55,0,1,.45,1,1s-.45,1-1,1H19.41l-1.41,1.41v3.17l1.41,1.41h19.17l1.41-1.41v-3.59c0-.55,.45-1,1-1s1,.45,1,1v4c0,.27-.11,.52-.29,.71l-2,2c-.19,.19-.44,.29-.71,.29Z"/><path fill="#f43737" d="M45,27v2H13V13h2v10c0,2.21,1.79,4,4,4h26Z"/><path fill="#fcddad" d="M29,26c-2.21,0-4-2.24-4-5s1.79-5,4-5,4,2.24,4,5-1.79,5-4,5Zm0-8c-1.08,0-2,1.37-2,3s.92,3,2,3,2-1.37,2-3-.92-3-2-3Z"/><circle cx="22" cy="21" r="1" fill="#fcddad"/><circle cx="36" cy="21" r="1" fill="#fcddad"/><path fill="#67389e" d="M1,45H5c1.1,0,2,.9,2,2v12c0,1.1-.9,2-2,2H1v-16h0Z"/><path fill="#5d2195" d="M7,59c0,1.1-.9,2-2,2H1v-16H3v12c0,1.1,.9,2,2,2h2Z"/><path fill="#fcddad" d="M45,51l-15.16,7.58c-.55,.28-1.16,.42-1.78,.42H7v-12l2.58-.86c.76-.25,1.55-.38,2.33-.38,1.44,0,2.87,.42,4.09,1.24h8c.83,0,1.58,.34,2.12,.88s.88,1.29,.88,2.12c0,1.66-1.34,3-3,3h3l11-4.88,1.52-.68c.53-.23,1.06-.34,1.59-.34,2.05,0,3.89,1.65,3.89,3.9Z"/><path fill="#fcc489" d="M45,51l-15.16,7.58c-.55,.28-1.16,.42-1.78,.42H7v-12l2-.67v6.67c0,2.21,1.79,4,4,4H29.06c.62,0,1.23-.14,1.78-.42l13.91-6.95c.16,.42,.25,.88,.25,1.37Z"/><path fill="#fcc489" d="M24,54h-7c-.55,0-1-.45-1-1s.45-1,1-1h7c.55,0,1,.45,1,1s-.45,1-1,1Z"/><path fill="#67389e" d="M57,5h4c1.1,0,2,.9,2,2v12c0,1.1-.9,2-2,2h-4V5h0Z" transform="rotate(180 60 13)"/><path fill="#5d2195" d="M63,19v2h-4c-1.1,0-2-.9-2-2V7c0-1.1,.9-2,2-2v12c0,1.1,.9,2,2,2h2Z"/><path fill="#fcddad" d="M57,7v12l-2.58,.86c-.76,.25-1.55,.38-2.33,.38-1.44,0-2.87-.42-4.09-1.24h-8c-.83,0-1.58-.34-2.12-.88s-.88-1.29-.88-2.12c0-1.66,1.34-3,3-3H23l11.16-5.58c.55-.28,1.16-.42,1.78-.42h21.06Z"/><path fill="#fcc489" d="M37.16 7.42l-11.16 5.58h-3l11.16-5.58c.55-.28 1.16-.42 1.78-.42h3c-.62 0-1.23.14-1.78.42zM40.88 18.12c.54.54 1.29.88 2.12.88h-3c-.83 0-1.58-.34-2.12-.88s-.88-1.29-.88-2.12c0-1.66 1.34-3 3-3h3c-1.66 0-3 1.34-3 3 0 .83.34 1.58.88 2.12zM47 13h-7c-.55 0-1-.45-1-1s.45-1 1-1h7c.55 0 1 .45 1 1s-.45 1-1 1z"/><path fill="#504254" d="M38,34v14.12l-11,4.88h-3c1.66,0,3-1.34,3-3,0-.83-.34-1.58-.88-2.12s-1.29-.88-2.12-.88h-6v-13h20Z"/><path fill="#3e3342" d="M24 47h-6v-13h3v10c0 1.66 1.34 3 3 3zM30 50c0 .78-.3 1.49-.79 2.02l-2.21.98h-3c1.66 0 3-1.34 3-3 0-.83-.34-1.58-.88-2.12s-1.29-.88-2.12-.88h3c.83 0 1.58.34 2.12.88s.88 1.29.88 2.12z"/><rect width="6" height="5" x="25" y="34" fill="#fc4847"/><path fill="#f43737" d="M31,37v2h-6v-5h2v1c0,1.1,.9,2,2,2h2Z"/></svg>