<svg xmlns="http://www.w3.org/2000/svg" width="32" height="32"><g fill="#fff" fill-rule="evenodd" transform="translate(9 -1028.362)"><circle cx="657.054" cy="437.094" r="15.268" fill="#9257a2" transform="translate(-681.561 586.308) scale(1.04795)"/><path style="line-height:normal;text-indent:0;text-align:start;text-decoration-line:none;text-decoration-style:solid;text-decoration-color:#000;text-transform:none;block-progression:tb;isolation:auto;mix-blend-mode:normal" fill="#6c4676" d="M19.766 31.531a16 16 0 0 0 .963-.246 16 16 0 0 0 1.501-.549 16 16 0 0 0 1.44-.695 16 16 0 0 0 1.365-.836 16 16 0 0 0 1.272-.967 16 16 0 0 0 1.172-1.092 16 16 0 0 0 1.054-1.2 16 16 0 0 0 .93-1.301 16 16 0 0 0 .797-1.387 16 16 0 0 0 .652-1.461 16 16 0 0 0 .504-1.518 16 16 0 0 0 .352-1.56 16 16 0 0 0 .177-1.469l-7.091-7.092a.5.5 0 0 0-.354-.146h-.006l-1.49-1.49a.5.5 0 0 0-.508-.508.5.5 0 0 0-.492.507v1.49h-1.502l-1.49-1.49a.5.5 0 0 0-.508-.507.5.5 0 0 0-.492.507v1.49h-1.498a.497.497 0 0 0-.498.499v1.799l1.884 1.884a5.534 5.534 0 0 0-.34-.254A5.458 5.458 0 0 0 14.493 13 5.5 5.5 0 0 0 9 18.494c0 1.514.617 2.887 1.611 3.881l9.155 9.156z" color="#000" font-family="sans-serif" font-weight="400" transform="translate(-9 1028.362)"/><path style="line-height:normal;text-indent:0;text-align:start;text-decoration-line:none;text-decoration-style:solid;text-decoration-color:#000;text-transform:none;block-progression:tb;isolation:auto;mix-blend-mode:normal" d="M9.504.014a.5.5 0 0 0-.492.507v1.49H7.514a.497.497 0 0 0-.498.499v1.799c.418-.011.998.382.998.382V3.01h1.38a.5.5 0 0 0 .233 0h3.76a.5.5 0 0 0 .232 0h1.383V8h-3.691c.28.287.291.658.373 1H15.5a.5.5 0 0 0 .5-.5V2.51a.499.499 0 0 0-.5-.498h-1.496V.522a.5.5 0 0 0-.508-.508.5.5 0 0 0-.492.507v1.49h-2.992V.522a.5.5 0 0 0-.508-.507Zm-.492 3.994v.998h.998v-.998h-.998zm1.996 0v.998h1v-.998h-1zm1.998 0v.998h.998v-.998h-.998zM5.492 5A5.5 5.5 0 0 0 0 10.494a5.498 5.498 0 0 0 5.492 5.492 5.5 5.5 0 0 0 5.494-5.492A5.502 5.502 0 0 0 5.492 5Zm0 .998a4.489 4.489 0 0 1 4.496 4.496 4.487 4.487 0 0 1-4.496 4.494 4.485 4.485 0 0 1-4.494-4.494 4.487 4.487 0 0 1 4.494-4.496zm5.516.006v.998h1v-.998h-1zm1.998 0v.998h.998v-.998h-.998zm-7.52.658a.5.5 0 0 0-.492.508v3.324a.5.5 0 0 0 .5.5h3.012a.5.5 0 1 0 0-1H5.994V7.17a.5.5 0 0 0-.508-.508Z" color="#000" font-family="sans-serif" font-weight="400" overflow="visible" transform="translate(0 1036.362)"/></g></svg>