<svg xmlns="http://www.w3.org/2000/svg" width="64" height="64"><path style="line-height:normal;-inkscape-font-specification:Sans;text-indent:0;text-align:start;text-decoration-line:none;text-transform:none;block-progression:tb;marker:none" d="M21 0C9.408 0 0 9.408 0 21s9.408 21 21 21 21-9.408 21-21S32.592 0 21 0zm0 1c11.052 0 20 8.948 20 20s-8.948 20-20 20S1 32.052 1 21 9.948 1 21 1zM8.4 10.994a.5.5 0 0 0-.056.006.5.5 0 0 0-.344.5v20a.5.5 0 0 0 .5.5h2.938a.5.5 0 0 0 .03 0 .5.5 0 0 0 .032 0h22a.5.5 0 0 0 .5-.5v-15a.5.5 0 0 0-.5-.5h-2.469v-2.5a.5.5 0 0 0-.5-.5H21v-1.5a.5.5 0 0 0-.5-.5h-12a.5.5 0 0 0-.1-.006zM9 12h11v1.5a.5.5 0 0 0 .5.5h9.531v2H11.5a.5.5 0 0 0-.156 0 .5.5 0 0 0-.344.5V31H9V12zm3 5h18.438a.5.5 0 0 0 .187 0H33v14H12V17zm10.5 2c-2.756 0-5 2.244-5 5s2.244 5 5 5 5-2.244 5-5-2.244-5-5-5zm0 1c2.215 0 4 1.785 4 4s-1.785 4-4 4-4-1.785-4-4 1.785-4 4-4zm-.5 1.5v2h-2v1h2v2h1v-2h2v-1h-2v-2h-1z" color="#000" font-family="Sans" font-weight="400" overflow="visible"/></svg>