<svg xmlns="http://www.w3.org/2000/svg" width="48" height="48"><g fill-rule="evenodd"><path fill="#239fdb" d="M48 24c0 13.275-10.725 24-24 24S0 37.275 0 24 10.725 0 24 0s24 10.725 24 24z"/><path style="line-height:normal;text-indent:0;text-align:start;text-decoration-line:none;text-decoration-style:solid;text-decoration-color:#000;text-transform:none;block-progression:tb;isolation:auto;mix-blend-mode:normal" fill="#fff" d="M16.982 1022.362a.5.5 0 0 0-.436.307l-2.379 5.691h-4.66a.5.5 0 1 0 0 1H14.5a.5.5 0 0 0 .461-.306l1.994-4.77 3.579 10.735a.5.5 0 0 0 .943.018l2.121-5.676h2.41a.5.5 0 0 0 .424-.235l1.918-3.076 2.182 6.961a.5.5 0 0 0 .9.115l2.346-3.765h4.722a.5.5 0 1 0 0-1h-5a.5.5 0 0 0-.424.236l-1.917 3.076-2.18-6.96a.5.5 0 0 0-.903-.116l-2.345 3.764h-2.48a.5.5 0 0 0-.47.326l-1.746 4.674-3.552-10.656a.5.5 0 0 0-.5-.342z" color="#000" font-family="sans-serif" font-weight="400" overflow="visible" transform="translate(0 -1004.362)"/></g></svg>