<svg xmlns="http://www.w3.org/2000/svg" xmlns:xlink="http://www.w3.org/1999/xlink" width="48" height="48"><defs><linearGradient id="b" x1="949.87" x2="974.39" y1="518.014" y2="544.657" gradientTransform="translate(-1454.353 211.343) scale(1.53785)" gradientUnits="userSpaceOnUse" xlink:href="#a"/><linearGradient id="a"><stop offset="0" stop-color="#24f7bc"/><stop offset="1" stop-color="#24c4fc"/></linearGradient></defs><g transform="translate(0 -1004.362)"><rect width="48" height="48" y="1004.362" fill="url(#b)" rx="10.144" ry="10.144"/><path fill="#fff" fill-rule="evenodd" style="line-height:normal;text-indent:0;text-align:start;text-decoration-line:none;text-decoration-style:solid;text-decoration-color:#000;text-transform:none;block-progression:tb;isolation:auto;mix-blend-mode:normal" d="M16.64 1020.65a5.649 5.649 0 0 0-3.988 9.639.5.5 0 0 0 .012.01l8.475 7.929a.5.5 0 0 0 .341.134h.014a.5.5 0 0 0 .342-.135l7.977-7.462 1.287 3.37a.5.5 0 0 0 .94-.018l2.335-6.858 1.217 2.846a.5.5 0 0 0 .459.303h2.441a.5.5 0 1 0 0-1h-2.111l-1.598-3.742a.5.5 0 0 0-.476-.303.5.5 0 0 0-.457.338l-2.31 6.783-.948-2.48c1.992-2.171 1.835-5.593-.272-7.702a.5.5 0 0 0-.17-.113c-2.212-2.058-5.653-2.043-7.806.113l-.858.858-.857-.858a5.619 5.619 0 0 0-3.988-1.654zm0 .99c1.185 0 2.37.457 3.282 1.37l1.21 1.211a.5.5 0 0 0 .708 0l1.21-1.21a4.615 4.615 0 0 1 6.563 0c1.77 1.771 1.872 4.631.166 6.398h-2.384l-1.573-2.465a.5.5 0 0 0-.896.115l-1.405 4.381-1.144-1.799a.5.5 0 0 0-.422-.232h-3.447a.5.5 0 1 0 0 1h3.172l1.572 2.467a.5.5 0 0 0 .896-.116l1.403-4.38 1.146 1.798a.5.5 0 0 0 .422.23h1.608l-7.24 6.776-8.126-7.603a4.629 4.629 0 0 1 0-6.57 4.62 4.62 0 0 1 3.28-1.372z" color="#000" font-family="sans-serif" font-weight="400" overflow="visible"/></g></svg>