<svg xmlns="http://www.w3.org/2000/svg" width="32" height="32"><path style="line-height:normal;text-indent:0;text-align:start;text-decoration-line:none;text-decoration-style:solid;text-decoration-color:#000;text-transform:none;block-progression:tb;isolation:auto;mix-blend-mode:normal" fill="#62355c" fill-rule="evenodd" d="M8.979 1030.363a.5.5 0 0 0-.436.306l-2.379 5.692h-4.66a.5.5 0 1 0 0 1h4.992a.5.5 0 0 0 .461-.307l1.994-4.77 3.578 10.735a.5.5 0 0 0 .944.018l2.12-5.676h2.41a.5.5 0 0 0 .425-.234l1.918-3.077 2.181 6.961a.5.5 0 0 0 .9.116l2.346-3.766h4.723a.5.5 0 1 0 0-1h-5a.5.5 0 0 0-.424.236l-1.918 3.077-2.18-6.961a.5.5 0 0 0-.902-.116l-2.345 3.764h-2.48a.5.5 0 0 0-.47.326l-1.746 4.674-3.552-10.658a.5.5 0 0 0-.5-.34z" color="#000" font-family="sans-serif" font-weight="400" overflow="visible" transform="translate(0 -1020.362)"/></svg>