<svg xmlns="http://www.w3.org/2000/svg" data-name="Layer 3" viewBox="0 0 64 64"><path fill="#50bae3" d="M36,44h0a4,4,0,0,0,4-4V27h0a5.3,5.3,0,0,0-3.846-5.1L33,21H27l-3.154.9A5.3,5.3,0,0,0,20,27h0V40a4,4,0,0,0,4,4H36Z"/><path fill="#6ec5e7" d="M36.154,21.9,33,21H29.584A5.292,5.292,0,0,0,26,26V39a4,4,0,0,0,4,4h8.62A3.972,3.972,0,0,0,40,40V27A5.3,5.3,0,0,0,36.154,21.9Z"/><path fill="#5a5b5d" d="M22,12.05V7a5,5,0,0,1,5-5h4a3,3,0,0,1,3,3h1a3,3,0,0,1,3,3v4.05Z"/><path fill="#77787c" d="M35,5H34a3,3,0,0,0-3-3H30a5,5,0,0,0-5,5v5.05H38V8A3,3,0,0,0,35,5Z"/><path fill="#c89a94" d="M24 12H22.5A2.5 2.5 0 0020 14.5h0A2.5 2.5 0 0022.5 17h1.842M36 12h1.5A2.5 2.5 0 0140 14.5h0A2.5 2.5 0 0137.5 17H35.658"/><path fill="#e1b2ab" d="M27,20.2V22a3,3,0,0,0,3,3h0a3,3,0,0,0,3-3V20.2Z"/><path fill="#fee2d6" d="M27,21.31V22a3,3,0,0,0,6,0v-.69A6.19,6.19,0,0,1,30,22,6.19,6.19,0,0,1,27,21.31Z"/><rect width="2" height="3" x="23" y="28" fill="#3177a6"/><rect width="2" height="3" x="35" y="28" fill="#3177a6"/><path fill="#fee2d6" d="M24,31H20v9a4,4,0,0,0,4,4h0"/><path fill="#8b5034" d="M36,58h0a3.618,3.618,0,0,1,2,3.236V62H22v-.764A3.618,3.618,0,0,1,24,58h0"/><path fill="#a97e6a" d="M24,58a3.614,3.614,0,0,0-1.984,3H37.983A3.61,3.61,0,0,0,36,58Z"/><rect width="17" height="4" x="45" y="58" fill="#77787c"/><path fill="#fbe26c" d="M54,58V6H49a4,4,0,0,1-4-4H62V58Z"/><rect width="6" height="56" x="56" y="2" fill="#d8b43e"/><rect width="5" height="2" x="54" y="9" fill="#77787c"/><rect width="3" height="2" x="54" y="13" fill="#77787c"/><rect width="5" height="2" x="54" y="17" fill="#77787c"/><rect width="3" height="2" x="54" y="21" fill="#77787c"/><rect width="5" height="2" x="54" y="25" fill="#77787c"/><rect width="3" height="2" x="54" y="29" fill="#77787c"/><rect width="5" height="2" x="54" y="33" fill="#77787c"/><rect width="3" height="2" x="54" y="37" fill="#77787c"/><rect width="5" height="2" x="54" y="41" fill="#77787c"/><rect width="3" height="2" x="54" y="45" fill="#77787c"/><rect width="5" height="2" x="54" y="49" fill="#77787c"/><rect width="3" height="2" x="54" y="53" fill="#77787c"/><polygon fill="#f9d655" points="13 52 16 55 9 62 2 55 5 52 7 54 7 10 5 12 2 9 9 2 16 9 13 12 11 10 11 54 13 52"/><polygon fill="#fbe26c" points="13 52 11 54 11 10 13 12 16 9 9.04 2.04 9.04 61.96 16 55 13 52"/><path fill="#77787c" d="M45,2a4,4,0,0,0,4,4H62V2Z"/><path fill="#e1b2ab" d="M36,11v4a6,6,0,0,1-6,6h0a6,6,0,0,1-6-6V11h3.394A6.737,6.737,0,0,0,33,8h0Z"/><path fill="#fee2d6" d="M27.394 12H24v3a6 6 0 0012 0V12L33 9A6.738 6.738 0 0127.394 12zM36 31h4v9a4 4 0 01-4 4h0"/><rect width="12" height="18" x="24" y="40" fill="#77787c"/><rect width="10" height="18" x="26" y="40" fill="#9a9b9f"/><rect width="2" height="13" x="29" y="45" fill="#5a5b5d"/><rect width="2" height="4" x="29" y="58" fill="#8b5034"/></svg>