<svg xmlns="http://www.w3.org/2000/svg" width="48" height="48"><g fill="#fff" transform="translate(8 -1012.362)"><circle cx="16" cy="1036.362" r="24" fill="#1d67b1" fill-rule="evenodd"/><path d="M3.465 8c-.372 0-.718.115-.99.326A1.187 1.187 0 0 0 2 9.25v13.5c0 .38.203.714.475.926.272.211.618.324.99.324h25.07c.372 0 .718-.113.99-.324A1.19 1.19 0 0 0 30 22.75V9.25c0-.38-.203-.712-.475-.924a1.604 1.604 0 0 0-.99-.326H3.465Zm0 1h25.07c.163 0 .3.056.377.115.077.06.088.1.088.135v13.5c0 .035-.011.077-.088.137a.634.634 0 0 1-.377.113H3.465a.639.639 0 0 1-.377-.113C3.01 22.827 3 22.785 3 22.75V9.25c0-.035.011-.075.088-.135A.634.634 0 0 1 3.465 9ZM5 10c-.546 0-1 .454-1 1s.454 1 1 1 1-.454 1-1-.454-1-1-1zm22 0c-.546 0-1 .454-1 1s.454 1 1 1 1-.454 1-1-.454-1-1-1zm-16.986 1.969v8.062h3.351V18.88H11.28v-6.91h-1.265zm4.869 0-1.29 8.062h1.163l.219-1.463h1.556l.219 1.463h1.277l-1.289-8.062h-1.855zm3.722 0v8.062H20.6c.634 0 1.112-.166 1.435-.49.324-.324.486-.798.486-1.422v-.656c.004-.428-.068-.79-.216-1.084a1.33 1.33 0 0 0-.727-.645c.281-.131.489-.33.621-.6.133-.268.199-.609.197-1.023v-.289c.004-.621-.145-1.085-.447-1.392-.301-.308-.779-.462-1.431-.461h-1.913zm1.268 1.152h.611c.224 0 .387.064.49.197.105.134.156.345.155.631v.45c-.002.317-.07.54-.203.667-.133.128-.319.19-.557.186h-.496v-2.13zm-4.125.275.61 4.079h-1.221l.611-4.079zm4.125 3.006h.564c.287-.01.495.065.625.21.131.145.196.403.194.77v.702c0 .295-.057.504-.168.623-.112.12-.275.176-.488.172h-.727v-2.477zM5 20c-.546 0-1 .454-1 1s.454 1 1 1 1-.454 1-1-.454-1-1-1zm22 0c-.546 0-1 .454-1 1s.454 1 1 1 1-.454 1-1-.454-1-1-1z" color="#000" font-family="sans-serif" font-weight="400" overflow="visible" transform="translate(0 1020.362)" style="line-height:normal;text-indent:0;text-align:start;text-decoration-line:none;text-decoration-style:solid;text-decoration-color:#000;text-transform:none;block-progression:tb;isolation:auto;mix-blend-mode:normal"/></g></svg>