<svg xmlns="http://www.w3.org/2000/svg" enable-background="new 0 0 64 64" viewBox="0 0 64 64"><path fill="#2c2e63" d="M40.1,15.1c0,0,4.3,0.8,3.6,7.4c0,0.3,0.1,0.6,0.3,0.8c0.2,0.2,0.6,0.3,0.9,0.2c0,0,3.9-0.9,6.4,0.9
		c1.3,0.9,2,2.4,2.2,4.5c0,0.5,0.5,0.9,1,0.9c0,0,0.1,0,0.1,0c0.5,0,0.9-0.5,0.9-1c-0.2-2.7-1.2-4.7-3-5.9c-2.2-1.6-5.1-1.6-6.7-1.4
		c0.1-4.9-2.3-6.9-3.9-7.7c1.3-2.4,0.4-5.3,0.3-5.5c-0.2-0.5-0.7-0.8-1.2-0.6c-0.5,0.2-0.8,0.7-0.6,1.2c0,0,0.9,3.1-0.7,4.7
		c-0.3,0.3-0.3,0.6-0.2,1C39.5,14.8,39.8,15.1,40.1,15.1z"/><path fill="#2c2e63" d="M28.8,17.4c2.7,3.1,8.1,3.1,10.5,3c-0.1,3,0.5,4.9,1.7,6c1.6,1.5,3.9,1.4,5.5,1.2c1.3-0.1,2.3,0,2.7,0.4
		c0.3,0.3,0.2,0.7,0.2,0.8c-0.1,0.5,0.2,1,0.7,1.1c0.1,0,0.1,0,0.2,0c0.4,0,0.8-0.3,0.9-0.8c0-0.1,0.3-1.4-0.6-2.5
		c-0.8-0.9-2.3-1.3-4.3-1.1c-2,0.2-3.2,0-4-0.7c-0.9-0.9-1.3-2.7-1.1-5.7c0-0.3-0.1-0.6-0.3-0.8c-0.2-0.2-0.5-0.3-0.8-0.2
		c-0.1,0-7.1,1-9.9-2.2c-1.3-1.5-1.5-3.7-0.6-6.6c0.2-0.5-0.1-1.1-0.6-1.2C28.6,8.2,28,8.5,27.9,9C26.8,12.6,27.1,15.4,28.8,17.4z"/><path fill="#2c2e63" d="M54.6,9.4C48.6,3.3,40.5,0,32,0C23.4,0,15.4,3.3,9.4,9.4c-12.5,12.5-12.5,32.8,0,45.3c6,6,14.1,9.4,22.6,9.4
		c8.5,0,16.6-3.3,22.6-9.4c6-6,9.4-14.1,9.4-22.6C64,23.5,60.7,15.4,54.6,9.4z M53.2,10.7c5.7,5.7,8.8,13.2,8.8,21.3
		c0,7.7-2.9,15-8.1,20.6L41.5,40.1h13.2c0.5,0,1-0.4,1-1v-6.6c0-0.5-0.4-1-1-1H32.9L11.4,10.1C17,4.8,24.3,1.9,32,1.9
		C40,1.9,47.6,5.1,53.2,10.7z M10.3,38.2v-4.7h9.6v4.7H10.3z M21.8,33.5h10.4l4.7,4.7h-15V33.5z M34.9,33.5h10.6v4.7h-5.9L34.9,33.5
		z M49.7,33.5v4.7h-2.3v-4.7H49.7z M53.7,33.5v4.7h-2.1v-4.7H53.7z M10.7,53.3C5.1,47.6,1.9,40,1.9,32c0-7.7,2.9-15,8.1-20.6
		l20.1,20.1H9.3c-0.5,0-1,0.4-1,1v6.6c0,0.5,0.4,1,1,1h29.4l13.8,13.8C47,59.2,39.7,62.1,32,62.1C24,62.1,16.4,58.9,10.7,53.3z"/></svg>