<svg xmlns="http://www.w3.org/2000/svg" xmlns:xlink="http://www.w3.org/1999/xlink" width="28" height="28"><defs><linearGradient id="a"><stop offset="0" stop-color="#24f3d2"/><stop offset=".394" stop-color="#0674f0"/><stop offset=".507" stop-color="#6961b5"/><stop offset=".813" stop-color="#f34660"/><stop offset="1" stop-color="#ee078d"/></linearGradient><linearGradient id="b" x1="868.253" x2="937.656" y1="521.354" y2="588.736" gradientTransform="translate(-774.065 561.767) scale(.89708)" gradientUnits="userSpaceOnUse" xlink:href="#a"/></defs><g transform="translate(0 -1024.362)"><rect width="28" height="28" y="1024.362" fill="url(#b)" rx="5.917" ry="5.917"/><path fill="#fff" d="M9.515 1030.864c-.646 0-1.195.42-1.404.996h-.602a.5.5 0 0 0-.053 0 .5.5 0 0 0 .053.998h.6c.151.425.487.76.912.912v.594a.502.502 0 0 0 .004.047c-1.133.217-2.012 1.168-2.012 2.33v6.252c0 1.325 1.142 2.37 2.502 2.37 1.36 0 2.504-1.045 2.504-2.37v-1.63h.988a.5.5 0 0 0 .008 0v1.63c0 1.325 1.142 2.37 2.502 2.37 1.36 0 2.502-1.045 2.502-2.37v-6.252c0-.515-.176-.986-.467-1.373h1.45a.987.987 0 0 1 1.003.996v4.596c-.577.209-.996.76-.996 1.406 0 .823.676 1.498 1.498 1.498.823 0 1.506-.675 1.506-1.498 0-.649-.428-1.202-1.012-1.408v-4.594c0-1.1-.9-2-2-2H16.02v-.597c.418-.154.748-.488.898-.909h.594a.5.5 0 1 0 0-.998h-.596a1.505 1.505 0 0 0-1.406-.996 1.5 1.5 0 0 0-1.402.996h-.598a.5.5 0 0 0-.05 0 .5.5 0 0 0 .05.998h.594c.151.425.487.761.912.912v.594h-4.99v-.597c.418-.154.748-.488.898-.909h.586a.5.5 0 1 0 0-.998h-.59a1.503 1.503 0 0 0-1.404-.996zm0 1.004a.49.49 0 0 1 .502.494.491.491 0 0 1-.457.494.5.5 0 0 0-.086 0 .491.491 0 0 1-.461-.494.49.49 0 0 1 .502-.494zm5.994 0a.49.49 0 0 1 .502.494.492.492 0 0 1-.457.494.5.5 0 0 0-.086 0 .483.483 0 0 1-.434-.353.5.5 0 0 0 0-.282.486.486 0 0 1 .475-.353zm-3.959 3.5h1.932c-.291.387-.467.858-.467 1.373v1.623a.502.502 0 0 0-.008 0h-.988v-1.623c0-.516-.177-.986-.469-1.373zm-3.533 2h2.998v.996H8.017v-.996zm6.002 0h2.996v.996h-2.996v-.996zm-2 2h.988a.502.502 0 0 0 .008 0v.996a.5.5 0 0 0-.002 0 .5.5 0 0 0-.006 0h-.988v-.996zm-4.002 1.994h2.998v1.004H8.017v-1.004zm6.002 0h2.996v1.004h-2.996v-1.004zm6.488.502c.282 0 .502.22.502.502 0 .282-.22.502-.502.502a.49.49 0 0 1-.494-.502.49.49 0 0 1 .494-.502z"/></g></svg>