<svg xmlns="http://www.w3.org/2000/svg" viewBox="0 0 48 48"><path fill="#ff7170" d="M19.5 10.5c0-5-4-9-9-9s-9 4-9 9V24h18V10.5z"/><path fill="#d2e18c" d="M1.5 24v13.5c0 5 4 9 9 9s9-4 9-9V24h-18z"/><path fill="#e2e2e2" d="M26.6 26.6c-4.6 4.6-4.6 12 0 16.5l16.5-16.5c-4.6-4.6-12-4.6-16.5 0z"/><path fill="#e2e2e2" d="M43.1 26.6 26.6 43.1c4.6 4.6 12 4.6 16.5 0s4.5-12 0-16.5z"/><path d="M10.5 47.2c5.4 0 9.8-4.4 9.8-9.8v-27C20.3 5 15.9.6 10.5.6S.7 5 .7 10.4v27c.1 5.5 4.4 9.8 9.8 9.8zm0-45c4.6 0 8.3 3.7 8.3 8.3v12.7H2.3V10.5C2.3 6 6 2.2 10.5 2.2zM2.3 24.7h16.5v12.7c0 4.6-3.7 8.3-8.3 8.3S2.3 42 2.3 37.5V24.7zm32.5-2.3c-3.3 0-6.4 1.3-8.8 3.6s-3.6 5.5-3.6 8.8c0 3.3 1.3 6.4 3.6 8.8s5.5 3.6 8.8 3.6 6.4-1.3 8.8-3.6c4.8-4.8 4.8-12.7 0-17.6-2.3-2.3-5.5-3.6-8.8-3.6zm-7.7 4.7c2.1-2.1 4.8-3.2 7.7-3.2 2.7 0 5.2 1 7.2 2.7L26.6 42c-3.8-4.3-3.6-10.8.5-14.9zm15.5 15.4c-2.1 2.1-4.8 3.2-7.7 3.2-2.7 0-5.2-1-7.2-2.7l15.4-15.4c3.7 4.3 3.5 10.9-.5 14.9z"/></svg>