<svg xmlns="http://www.w3.org/2000/svg" enable-background="new 0 0 512 512" viewBox="0 0 512 512"><linearGradient id="a" x1="256" x2="256" y1="35.363" y2="527.398" gradientUnits="userSpaceOnUse"><stop offset="0" stop-color="#2cb8dd"/><stop offset=".517" stop-color="#0066d4"/><stop offset="1" stop-color="#0d007f"/></linearGradient><path fill="url(#a)" d="M208,240.232h24v24c0,4.422,3.582,8,8,8h32c4.418,0,8-3.578,8-8v-24h24c4.418,0,8-3.578,8-8v-32c0-4.422-3.582-8-8-8h-24v-24c0-4.422-3.582-8-8-8h-32c-4.418,0-8,3.578-8,8v24h-24c-4.418,0-8,3.578-8,8v32C200,236.654,203.582,240.232,208,240.232z M216,208.232h24c4.418,0,8-3.578,8-8v-24h16v24c0,4.422,3.582,8,8,8h24v16h-24c-4.418,0-8,3.578-8,8v24h-16v-24c0-4.422-3.582-8-8-8h-24V208.232z"/><linearGradient id="b" x1="256" x2="256" y1="35.363" y2="527.398" gradientUnits="userSpaceOnUse"><stop offset="0" stop-color="#2cb8dd"/><stop offset=".517" stop-color="#0066d4"/><stop offset="1" stop-color="#0d007f"/></linearGradient><path fill="url(#b)" d="M256,304.232c48.523,0,88-39.477,88-88s-39.477-88-88-88s-88,39.477-88,88S207.477,304.232,256,304.232z M256,144.232c39.699,0,72,32.297,72,72s-32.301,72-72,72s-72-32.297-72-72S216.301,144.232,256,144.232z"/><linearGradient id="c" x1="291.693" x2="291.693" y1="35.363" y2="527.398" gradientUnits="userSpaceOnUse"><stop offset="0" stop-color="#2cb8dd"/><stop offset=".517" stop-color="#0066d4"/><stop offset="1" stop-color="#0d007f"/></linearGradient><path fill="url(#c)" d="M432,56.232h-81.474c-3.313-9.292-12.11-16-22.526-16h-24c-4.41,0-8-3.586-8-8c0-17.648-14.355-32-32-32h-16c-17.645,0-32,14.352-32,32c0,4.414-3.59,8-8,8h-24c-10.416,0-19.213,6.708-22.526,16H80c-4.418,0-8,3.578-8,8v440c0,4.422,3.582,8,8,8h352c4.418,0,8-3.578,8-8V317.203l41.742-41.744l0.086,0.086c-10.285,10.938-25.059,28.555-25.059,39.516c0,4.312,3.422,7.586,7.73,7.742h0.266c4.191,0,7.711-3.484,8.004-7.695c0.32-4.602,12.441-20.484,25.941-33.992c3.125-3.125,3.125-8.188,0-11.312l-5.657-5.655l11.313-11.313c9.359-9.359,9.359-24.578,0-33.938s-24.582-9.367-33.941,0l-11.312,11.312L440,249.323V64.232C440,59.811,436.418,56.232,432,56.232z M424,265.323l-16,16.001V96.232c0-4.422-3.582-8-8-8h-48v-16h72V265.323z M464.77,247.178l11.315,11.311c0,0-0.002,0.001-0.002,0.001c-0.003,0.003-0.004,0.008-0.008,0.012L374.262,360.318l-11.316-11.312L464.77,247.178z M355.13,363.813l4.322,4.322l-6.483,2.16L355.13,363.813z M352,104.232h40v193.092l-46.023,46.025c-0.058,0.058-0.079,0.142-0.135,0.201c-0.354,0.374-0.582,0.844-0.861,1.288c-0.287,0.458-0.606,0.881-0.795,1.386c-0.035,0.093-0.111,0.155-0.143,0.25l-11.312,33.938c-0.957,2.875-0.211,6.047,1.934,8.188c1.523,1.523,3.57,2.344,5.656,2.344c0.848,0,1.699-0.133,2.531-0.414l33.941-11.312c0.079-0.026,0.131-0.091,0.208-0.119c0.497-0.182,0.924-0.509,1.384-0.793c0.46-0.285,0.945-0.52,1.331-0.884c0.061-0.057,0.142-0.074,0.202-0.134L392,365.205v91.028H120v-352h40c0,4.422,3.582,8,8,8h176C348.418,112.232,352,108.654,352,104.232z M176,64.232c0-4.414,3.59-8,8-8h24c13.234,0,24-10.766,24-24c0-8.82,7.176-16,16-16h16c8.824,0,16,7.18,16,16c0,13.234,10.766,24,24,24h24c4.41,0,8,3.586,8,8v32H176V64.232z M424,496.232H88v-424h72v16h-48c-4.418,0-8,3.578-8,8v368c0,4.422,3.582,8,8,8h288c4.418,0,8-3.578,8-8V349.204l16-16V496.232z M493.055,230.209c1.512,1.516,2.344,3.523,2.344,5.656s-0.832,4.141-2.344,5.656l-5.657,5.657l-11.315-11.313l5.656-5.656C484.766,227.193,490.035,227.193,493.055,230.209z"/><linearGradient id="d" x1="228" x2="228" y1="35.363" y2="527.398" gradientUnits="userSpaceOnUse"><stop offset="0" stop-color="#2cb8dd"/><stop offset=".517" stop-color="#0066d4"/><stop offset="1" stop-color="#0d007f"/></linearGradient><path fill="url(#d)" d="M152,352.232h152c4.418,0,8-3.578,8-8s-3.582-8-8-8H152c-4.418,0-8,3.578-8,8S147.582,352.232,152,352.232z"/><linearGradient id="e" x1="296" x2="296" y1="35.363" y2="527.398" gradientUnits="userSpaceOnUse"><stop offset="0" stop-color="#2cb8dd"/><stop offset=".517" stop-color="#0066d4"/><stop offset="1" stop-color="#0d007f"/></linearGradient><path fill="url(#e)" d="M304,368.232h-16c-4.418,0-8,3.578-8,8s3.582,8,8,8h16c4.418,0,8-3.578,8-8S308.418,368.232,304,368.232z"/><linearGradient id="f" x1="240" x2="240" y1="35.363" y2="527.398" gradientUnits="userSpaceOnUse"><stop offset="0" stop-color="#2cb8dd"/><stop offset=".517" stop-color="#0066d4"/><stop offset="1" stop-color="#0d007f"/></linearGradient><path fill="url(#f)" d="M224,368.232c-4.418,0-8,3.578-8,8s3.582,8,8,8h32c4.418,0,8-3.578,8-8s-3.582-8-8-8H224z"/><linearGradient id="g" x1="172" x2="172" y1="35.363" y2="527.398" gradientUnits="userSpaceOnUse"><stop offset="0" stop-color="#2cb8dd"/><stop offset=".517" stop-color="#0066d4"/><stop offset="1" stop-color="#0d007f"/></linearGradient><path fill="url(#g)" d="M152,384.232h40c4.418,0,8-3.578,8-8s-3.582-8-8-8h-40c-4.418,0-8,3.578-8,8S147.582,384.232,152,384.232z"/><linearGradient id="h" x1="316" x2="316" y1="35.363" y2="527.398" gradientUnits="userSpaceOnUse"><stop offset="0" stop-color="#2cb8dd"/><stop offset=".517" stop-color="#0066d4"/><stop offset="1" stop-color="#0d007f"/></linearGradient><path fill="url(#h)" d="M256,408.232c0,4.422,3.582,8,8,8h104c4.418,0,8-3.578,8-8s-3.582-8-8-8H264C259.582,400.232,256,403.811,256,408.232z"/><linearGradient id="i" x1="188" x2="188" y1="35.363" y2="527.398" gradientUnits="userSpaceOnUse"><stop offset="0" stop-color="#2cb8dd"/><stop offset=".517" stop-color="#0066d4"/><stop offset="1" stop-color="#0d007f"/></linearGradient><path fill="url(#i)" d="M224,400.232h-72c-4.418,0-8,3.578-8,8s3.582,8,8,8h72c4.418,0,8-3.578,8-8S228.418,400.232,224,400.232z"/></svg>