<svg xmlns="http://www.w3.org/2000/svg" width="512" height="512" fill-rule="evenodd" clip-rule="evenodd" image-rendering="optimizeQuality" shape-rendering="geometricPrecision" text-rendering="geometricPrecision" viewBox="0 0 512 512"><path fill="#092f6a" fill-rule="nonzero" d="M360 201c0,0 0,1 0,1 36,6 64,38 64,76 0,43 -35,78 -78,78l-39 0c-1,0 -1,0 -2,0l-27 0 0 -156 68 0c5,0 9,1 14,1zm-277 -83l78 79c-10,4 -18,10 -26,18 -23,23 -30,54 -24,81 -49,14 -99,-23 -99,-75 0,-20 8,-40 23,-55l48 -48zm89 87c1,0 2,-1 2,-1 8,-2 16,-4 25,-4l36 0 31 0 0 156 -67 0c-22,0 -41,-9 -55,-23 -10,-10 -17,-22 -20,-33 0,-1 -1,-2 -1,-2 -10,-38 11,-80 49,-93zm1 -13l-82 -82 48 -48c48,-48 133,-15 133,55 0,42 -29,60 -40,71l-33 0c-9,0 -18,1 -26,4zm77 -4l7 -8c56,-55 17,-153 -63,-153 -23,0 -46,9 -64,26l-104 105c-49,49 -25,135 44,151 14,3 30,3 44,-1 12,33 43,60 85,60l99 0c0,1 0,2 -1,4 -20,77 57,137 132,101 20,-12 35,-31 42,-55l38 -142c6,-24 2,-48 -9,-68l0 0c-30,-52 -100,-60 -141,-19 -4,0 -9,-1 -13,-1l-96 0zm166 146l61 16 -18 65c-5,21 -19,37 -36,47l0 0c-18,10 -38,14 -59,8l0 0c-40,-10 -66,-53 -55,-95 1,-2 1,-5 2,-7l35 0c28,0 54,-14 70,-34zm64 4l-56 -15c7,-13 12,-29 12,-45 0,-40 -27,-74 -63,-86 19,-15 45,-21 69,-15l0 0c20,5 38,20 48,37l-1 0c10,17 14,38 8,59l-17 65z"/><path fill="#42a5f5" d="M360 202c0,0 0,-1 0,-1 -5,0 -9,-1 -14,-1l-68 0 0 156 27 0c1,0 1,0 2,0l39 0c43,0 78,-35 78,-78 0,-38 -28,-70 -64,-76z"/><path fill="#fff" d="M266 356l0-156-31 0-36 0c-9 0-17 2-25 4 0 0-1 1-2 1-38 13-59 55-49 93 0 0 1 1 1 2 3 11 10 23 20 33 14 14 33 23 55 23l67 0zM199 188l33 0c11-11 40-29 40-71 0-70-85-103-133-55l-48 48 82 82c8-3 17-4 26-4z"/><path fill="#42a5f5" d="M161 197l-78 -79 -48 48c-15,15 -23,35 -23,55 0,52 50,89 99,75 -6,-27 1,-58 24,-81 8,-8 16,-14 26,-18z"/><path fill="#fff" d="M489 214l0 0zm-47 -37l0 0zm-69 15c36,12 63,46 63,86 0,16 -5,32 -12,45l56 15 17 -65c6,-21 2,-42 -7,-59 -10,-17 -28,-32 -48,-37 -24,-6 -50,0 -69,15z"/><path fill="#42a5f5" d="M364 470l0 0zm52 -136c-16,20 -42,34 -70,34l-35 0c-1,2 -1,5 -2,7 -11,42 15,85 55,95 21,6 41,2 59,-8l0 0c17,-10 31,-26 36,-47l18 -65 -61 -16z"/></svg>