<svg xmlns="http://www.w3.org/2000/svg" width="163.839" height="163.839" fill-rule="evenodd" clip-rule="evenodd" image-rendering="optimizeQuality" shape-rendering="geometricPrecision" text-rendering="geometricPrecision" viewBox="0 0 1707 1707"><defs><linearGradient id="a" x1="724.937" x2="981.724" y1="28.657" y2="1678.89" gradientUnits="userSpaceOnUse"><stop offset="0" stop-color="#1e8ac6"/><stop offset=".302" stop-color="#834fbc"/><stop offset="1" stop-color="#e813b1"/></linearGradient></defs><path fill="url(#a)" d="M988 141c0,-186 -269,-187 -269,0l269 0zm-391 650c-25,-24 -68,-7 -68,28 0,35 43,53 68,28 15,-15 15,-40 0,-56zm0 152c-25,-24 -68,-7 -68,28 0,35 43,53 68,28 15,-15 15,-40 0,-56zm0 152c-25,-24 -68,-7 -68,28 0,35 43,52 68,28 15,-15 15,-40 0,-56zm0 152c-25,-24 -68,-7 -68,28 0,35 43,52 68,28 15,-16 15,-41 0,-56zm-56 152l0 0zm56 0c-16,-15 -41,-15 -56,0 -25,25 -7,67 28,67 35,0 52,-42 28,-67zm388 -757l0 0zm-159 18l0 74c0,37 55,36 55,0l0 -74c0,-6 5,-10 10,-10l74 0c36,0 37,-56 0,-56l-74 0c-5,0 -10,-4 -10,-10l0 -74c0,-37 -55,-36 -55,0l0 74c0,6 -5,10 -10,10l-75 0c-37,0 -36,56 0,56l75 0c5,0 10,4 10,10zm173 -4l0 0zm-98 -82l64 0c64,0 62,96 0,96l-64 0 0 64c0,64 -95,62 -95,0l0 -64 -65 0c-63,0 -62,-96 0,-96l65 0 0 -64c0,-64 95,-62 95,0l0 64zm238 -142l-571 0c-36,0 -66,-27 -71,-62l-52 0c-26,0 -48,21 -48,47l0 1114c0,26 22,47 48,47l817 0c26,0 47,-21 47,-47l0 -1114c0,-26 -21,-47 -47,-47l-52 0c-5,35 -35,62 -71,62zm-570 328c52,0 79,64 42,101 -38,38 -102,11 -102,-42 0,-32 27,-59 60,-59zm102 49l516 0c13,0 13,20 0,20l-516 0c-13,0 -13,-20 0,-20zm-60 120l0 0zm-42 -17c77,0 79,118 0,118 -79,0 -77,-118 0,-118zm102 49l516 0c13,0 13,20 0,20l-516 0c-13,0 -13,-20 0,-20zm-102 103c52,0 79,63 42,101 -38,37 -102,11 -102,-42 0,-33 27,-59 60,-59zm42 169l0 0zm-42 -17c77,0 79,118 0,118 -79,0 -77,-118 0,-118zm102 -103l516 0c13,0 13,20 0,20l-516 0c-13,0 -13,-20 0,-20zm0 172c-13,0 -13,-20 0,-20l516 0c13,0 13,20 0,20l-516 0zm-144 100l0 0zm42 -18c52,0 79,64 42,102 -56,56 -139,-30 -84,-84 11,-11 25,-18 42,-18zm102 70c-13,0 -13,-20 0,-20l516 0c13,0 13,20 0,20l-516 0zm-103 -1025l571 0c28,0 52,-24 52,-52l0 -147c0,-29 -24,-52 -52,-52 -191,0 -381,0 -571,0 -29,0 -52,23 -52,52l0 147c0,28 23,52 52,52zm643 -62l51 0c37,0 67,30 67,67l0 1114c0,37 -30,67 -67,67l-817 0c-37,0 -68,-30 -68,-67l0 -1114c0,-37 31,-67 68,-67l51 0 0 -109 -136 0c-33,0 -60,27 -60,60l0 1346c0,33 27,60 60,60l987 0c33,0 60,-27 60,-60l0 -1346c0,-33 -27,-60 -60,-60l-136 0 0 109z"/></svg>