<svg xmlns="http://www.w3.org/2000/svg" viewBox="0 0 500 500"><g id="freepik--background-simple--inject-22"><path d="M475.79,277.05c-13.49,40.89-42.56,85.72-85.35,100.31C325.8,399.42,320,452.43,202.71,452.07a236.91,236.91,0,0,1-50.94-5.47,197.3,197.3,0,0,1-24.12-7c-69.5-25.07-107.55-84.69-113-148.4-7.15-83.8,49.87-126.07,87-151s79.53-117.45,194.87-118a228.73,228.73,0,0,1,52.35,5.59c39.16,9,79.46,30.67,103.67,63.7,1.81,2.48,3.55,5,5.23,7.62C490.46,149.94,494.19,221.29,475.79,277.05Z" style="fill:#BFEFEA"></path><path d="M475.79,277.05c-13.49,40.89-42.56,85.72-85.35,100.31C325.8,399.42,320,452.43,202.71,452.07a236.91,236.91,0,0,1-50.94-5.47,197.3,197.3,0,0,1-24.12-7c-69.5-25.07-107.55-84.69-113-148.4-7.15-83.8,49.87-126.07,87-151s79.53-117.45,194.87-118a228.73,228.73,0,0,1,52.35,5.59c39.16,9,79.46,30.67,103.67,63.7,1.81,2.48,3.55,5,5.23,7.62C490.46,149.94,494.19,221.29,475.79,277.05Z" style="fill:#fff;opacity:0.7000000000000001"></path></g><g id="freepik--paper-plane--inject-22"><polygon points="405.06 91.28 444.79 99.5 434.1 111.73 405.06 91.28" style="fill:#fff"></polygon><path d="M434.1,112.23a.47.47,0,0,1-.28-.09L404.77,91.68a.5.5,0,0,1,.39-.89L444.89,99a.53.53,0,0,1,.37.34.47.47,0,0,1-.1.48l-10.68,12.23A.48.48,0,0,1,434.1,112.23Zm-26.78-20L434,111.07l9.83-11.25Z" style="fill:#263238"></path><polygon points="405.06 91.28 418.39 128.65 430.14 115.57 405.06 91.28" style="fill:#fff"></polygon><path d="M418.39,129.15h-.1a.51.51,0,0,1-.37-.33L404.59,91.44a.5.5,0,0,1,.2-.59.5.5,0,0,1,.62.07l25.07,24.29a.49.49,0,0,1,0,.69L418.76,129A.47.47,0,0,1,418.39,129.15Zm-12.14-36,12.33,34.58,10.86-12.11Z" style="fill:#263238"></path><polygon points="434.1 111.73 433.2 121.14 430.14 115.57 405.06 91.28 434.1 111.73" style="fill:#fff"></polygon><path d="M433.2,121.64a.49.49,0,0,1-.44-.26l-3-5.5-25-24.25a.49.49,0,0,1,0-.67.49.49,0,0,1,.67-.09l29,20.46a.47.47,0,0,1,.21.45l-.9,9.41a.5.5,0,0,1-.4.44ZM410,95.37l20.47,19.84a.34.34,0,0,1,.09.12l2.29,4.15.72-7.5Z" style="fill:#263238"></path><polygon points="433.2 121.14 428.03 118.21 430.14 115.57 433.2 121.14" style="fill:#fff"></polygon><path d="M433.2,121.64a.54.54,0,0,1-.25-.06l-5.16-2.94a.49.49,0,0,1-.25-.34.48.48,0,0,1,.1-.4l2.11-2.64a.47.47,0,0,1,.43-.19.51.51,0,0,1,.39.26l3.07,5.57a.5.5,0,0,1-.09.6A.52.52,0,0,1,433.2,121.64Zm-4.41-3.58,3.12,1.78-1.85-3.37Z" style="fill:#263238"></path><path d="M35.87,423.72h0a.5.5,0,0,1-.47-.53c0-.07.1-1.83.54-5.08a.48.48,0,0,1,.56-.42.49.49,0,0,1,.43.56c-.43,3.2-.54,5-.54,5A.5.5,0,0,1,35.87,423.72Zm1.31-10h-.09a.48.48,0,0,1-.4-.57c.27-1.61.58-3.28.92-4.95a.5.5,0,0,1,1,.2c-.33,1.66-.64,3.32-.92,4.92A.49.49,0,0,1,37.18,413.71Zm2-9.83h-.12a.5.5,0,0,1-.37-.6c.36-1.55.75-3.18,1.19-4.88a.5.5,0,0,1,.61-.36.51.51,0,0,1,.36.61c-.44,1.69-.83,3.31-1.19,4.85A.5.5,0,0,1,39.17,403.88Zm2.49-9.7-.14,0a.49.49,0,0,1-.34-.62c.43-1.55.91-3.16,1.41-4.81a.51.51,0,0,1,.63-.33.5.5,0,0,1,.33.62c-.5,1.65-1,3.25-1.41,4.79A.51.51,0,0,1,41.66,394.18Zm2.93-9.57a.4.4,0,0,1-.15,0,.49.49,0,0,1-.32-.63q.77-2.32,1.63-4.74a.5.5,0,0,1,.63-.31.51.51,0,0,1,.31.64q-.86,2.41-1.62,4.72A.51.51,0,0,1,44.59,384.61Zm3.35-9.43a.39.39,0,0,1-.18,0,.49.49,0,0,1-.29-.64q.87-2.29,1.83-4.67a.5.5,0,1,1,.92.37c-.63,1.58-1.24,3.13-1.81,4.65A.52.52,0,0,1,47.94,375.18Zm3.73-9.29a.43.43,0,0,1-.19,0,.49.49,0,0,1-.27-.65c.65-1.51,1.31-3,2-4.59a.5.5,0,0,1,.66-.26.51.51,0,0,1,.25.67q-1,2.31-2,4.57A.49.49,0,0,1,51.67,365.89Zm4.1-9.12a.54.54,0,0,1-.21,0,.5.5,0,0,1-.24-.67c.7-1.48,1.43-3,2.18-4.5a.51.51,0,0,1,.67-.23.5.5,0,0,1,.23.67q-1.12,2.26-2.18,4.49A.49.49,0,0,1,55.77,356.77Zm4.45-9a.46.46,0,0,1-.23-.06.5.5,0,0,1-.22-.67c.77-1.46,1.55-2.94,2.36-4.42a.5.5,0,1,1,.88.48c-.81,1.48-1.59,2.94-2.35,4.4A.5.5,0,0,1,60.22,347.81ZM65,339a.47.47,0,0,1-.25-.07.49.49,0,0,1-.18-.68c.81-1.43,1.65-2.88,2.52-4.33a.49.49,0,0,1,.68-.17.48.48,0,0,1,.17.68c-.85,1.45-1.69,2.89-2.5,4.32A.52.52,0,0,1,65,339Zm5.11-8.6a.54.54,0,0,1-.27-.07.51.51,0,0,1-.16-.69q1.3-2.12,2.68-4.24a.49.49,0,0,1,.69-.14.5.5,0,0,1,.15.69q-1.36,2.11-2.67,4.21A.48.48,0,0,1,70.11,330.43Zm5.41-8.4a.5.5,0,0,1-.41-.78q1.38-2.06,2.82-4.14a.51.51,0,0,1,.7-.12.5.5,0,0,1,.12.69c-1,1.38-1.9,2.76-2.81,4.12A.51.51,0,0,1,75.52,322Zm5.71-8.21a.52.52,0,0,1-.29-.09.51.51,0,0,1-.11-.7c1-1.34,2-2.69,3-4a.51.51,0,0,1,.7-.1.49.49,0,0,1,.1.7c-1,1.35-2,2.69-3,4A.49.49,0,0,1,81.23,313.82Zm6-8a.45.45,0,0,1-.31-.11.5.5,0,0,1-.09-.7c1-1.3,2-2.61,3.11-3.93a.5.5,0,0,1,.78.63c-1.06,1.31-2.09,2.61-3.1,3.92A.51.51,0,0,1,87.23,305.82ZM93.49,298a.5.5,0,0,1-.38-.82c1.06-1.27,2.13-2.55,3.23-3.82a.51.51,0,0,1,.71-.05.49.49,0,0,1,0,.7c-1.09,1.27-2.17,2.54-3.22,3.81A.51.51,0,0,1,93.49,298Zm6.52-7.58a.54.54,0,0,1-.33-.12.51.51,0,0,1,0-.71c1.1-1.24,2.22-2.47,3.36-3.71a.5.5,0,1,1,.74.68q-1.71,1.85-3.35,3.7A.51.51,0,0,1,100,290.45Zm6.77-7.35a.51.51,0,0,1-.34-.14.5.5,0,0,1,0-.71q1.71-1.8,3.48-3.6a.5.5,0,1,1,.71.7c-1.17,1.2-2.33,2.4-3.46,3.59A.49.49,0,0,1,106.78,283.1Zm7-7.14a.54.54,0,0,1-.35-.14.5.5,0,0,1,0-.71q1.77-1.75,3.59-3.49a.51.51,0,0,1,.71,0,.5.5,0,0,1,0,.71q-1.81,1.74-3.57,3.48A.5.5,0,0,1,113.78,276Zm7.23-6.91a.5.5,0,0,1-.34-.86q1.81-1.69,3.69-3.38a.5.5,0,0,1,.71,0,.5.5,0,0,1,0,.7c-1.25,1.12-2.47,2.25-3.68,3.37A.5.5,0,0,1,121,269.05Zm7.43-6.68a.5.5,0,0,1-.33-.88c1.24-1.09,2.51-2.18,3.79-3.27a.5.5,0,1,1,.65.77c-1.28,1.08-2.54,2.17-3.79,3.25A.5.5,0,0,1,128.44,262.37Zm7.62-6.47a.51.51,0,0,1-.39-.18.5.5,0,0,1,.07-.7c1.28-1.06,2.58-2.1,3.89-3.15a.49.49,0,0,1,.7.07.51.51,0,0,1-.07.71c-1.31,1-2.61,2.09-3.88,3.14A.48.48,0,0,1,136.06,255.9Zm7.81-6.23a.47.47,0,0,1-.39-.2.5.5,0,0,1,.08-.7q2-1.53,4-3a.5.5,0,1,1,.6.8q-2,1.51-4,3A.51.51,0,0,1,143.87,249.67Zm8-6a.5.5,0,0,1-.29-.9c1.33-1,2.69-2,4.05-2.93a.51.51,0,0,1,.7.11.5.5,0,0,1-.12.7c-1.36,1-2.71,2-4,2.92A.47.47,0,0,1,151.85,243.65Zm8.15-5.8a.48.48,0,0,1-.41-.21.51.51,0,0,1,.12-.7c1.37-.94,2.74-1.88,4.14-2.82a.5.5,0,0,1,.56.83q-2.08,1.41-4.13,2.82A.48.48,0,0,1,160,237.85Zm8.29-5.57a.51.51,0,0,1-.42-.23.5.5,0,0,1,.15-.69q2.08-1.37,4.21-2.71a.5.5,0,0,1,.69.15.51.51,0,0,1-.16.69q-2.12,1.35-4.19,2.71A.57.57,0,0,1,168.29,232.28Zm8.44-5.36a.52.52,0,0,1-.43-.24.5.5,0,0,1,.17-.69q2.11-1.31,4.27-2.6a.5.5,0,0,1,.51.85l-4.26,2.6A.5.5,0,0,1,176.73,226.92Zm8.57-5.15a.51.51,0,0,1-.44-.25.49.49,0,0,1,.18-.68q2.15-1.26,4.34-2.5a.49.49,0,0,1,.68.18.51.51,0,0,1-.19.69q-2.18,1.23-4.32,2.49A.47.47,0,0,1,185.3,221.77Zm8.68-4.94a.51.51,0,0,1-.43-.26.49.49,0,0,1,.19-.68l4.39-2.4a.5.5,0,0,1,.48.88c-1.48.8-2.94,1.59-4.38,2.39A.45.45,0,0,1,194,216.83Zm8.81-4.74a.51.51,0,0,1-.45-.27.5.5,0,0,1,.21-.67c1.47-.77,3-1.54,4.45-2.3a.5.5,0,0,1,.67.22.49.49,0,0,1-.22.67c-1.49.76-3,1.53-4.43,2.29A.49.49,0,0,1,202.79,212.09Zm8.9-4.54a.5.5,0,0,1-.22-.94q2.24-1.11,4.5-2.2a.49.49,0,0,1,.66.23.49.49,0,0,1-.23.67l-4.48,2.19A.48.48,0,0,1,211.69,207.55Zm9-4.34a.48.48,0,0,1-.45-.28.5.5,0,0,1,.24-.67l4.54-2.1a.5.5,0,1,1,.41.91q-2.28,1-4.53,2.1A.52.52,0,0,1,220.7,203.21Zm9.09-4.15a.5.5,0,0,1-.2-.95c1.52-.68,3-1.34,4.58-2a.5.5,0,1,1,.4.92q-2.31,1-4.57,2A.52.52,0,0,1,229.79,199.06Zm9.18-4a.48.48,0,0,1-.46-.31.49.49,0,0,1,.27-.65q2.29-1,4.62-1.91a.49.49,0,0,1,.65.27.5.5,0,0,1-.27.65q-2.33.94-4.62,1.91A.43.43,0,0,1,239,195.1Zm9.25-3.78a.51.51,0,0,1-.46-.31.5.5,0,0,1,.28-.65c1.54-.62,3.09-1.22,4.66-1.83a.5.5,0,0,1,.64.29.49.49,0,0,1-.28.64c-1.56.61-3.11,1.21-4.65,1.83A.58.58,0,0,1,248.22,191.32Zm9.33-3.6a.52.52,0,0,1-.47-.33.5.5,0,0,1,.29-.64l4.69-1.74a.5.5,0,0,1,.64.3.49.49,0,0,1-.29.64q-2.37.86-4.69,1.74A.47.47,0,0,1,257.55,187.72Zm9.39-3.43a.49.49,0,0,1-.47-.34.48.48,0,0,1,.3-.63c1.56-.56,3.14-1.11,4.72-1.66a.5.5,0,0,1,.33,1q-2.37.81-4.72,1.65A.45.45,0,0,1,266.94,184.29Zm9.45-3.27a.5.5,0,0,1-.48-.34.49.49,0,0,1,.32-.63q2.36-.8,4.75-1.57a.5.5,0,0,1,.31,1L276.55,181A.47.47,0,0,1,276.39,181Zm9.5-3.1a.5.5,0,0,1-.15-1l4.77-1.49a.49.49,0,0,1,.63.33.5.5,0,0,1-.33.62L286,177.9A.39.39,0,0,1,285.89,177.92Zm9.55-2.94a.49.49,0,0,1-.47-.35.51.51,0,0,1,.33-.63l4.8-1.41a.5.5,0,0,1,.28,1L295.59,175A.39.39,0,0,1,295.44,175Zm9.6-2.78a.52.52,0,0,1-.48-.37.51.51,0,0,1,.35-.62l4.82-1.33a.5.5,0,1,1,.26,1l-4.81,1.34Zm9.65-2.64a.51.51,0,0,1-.49-.37.5.5,0,0,1,.36-.61c1.6-.43,3.22-.85,4.84-1.27a.5.5,0,0,1,.25,1l-4.83,1.26Zm9.68-2.49a.5.5,0,0,1-.12-1l4.86-1.19a.5.5,0,0,1,.23,1l-4.85,1.19Zm9.72-2.35a.5.5,0,0,1-.49-.39.5.5,0,0,1,.37-.6l4.88-1.12a.5.5,0,0,1,.22,1l-4.87,1.12Zm9.74-2.22a.48.48,0,0,1-.48-.39.49.49,0,0,1,.38-.59l4.89-1.06a.5.5,0,0,1,.59.38.51.51,0,0,1-.38.6l-4.89,1.05Zm9.78-2.07a.5.5,0,0,1-.1-1l4.91-1a.5.5,0,0,1,.58.4.48.48,0,0,1-.39.58l-4.9,1Zm9.81-2a.49.49,0,0,1-.49-.41.51.51,0,0,1,.39-.59l4.92-.92a.49.49,0,0,1,.58.4.5.5,0,0,1-.4.58c-1.64.3-3.28.61-4.91.93Zm9.83-1.83a.5.5,0,0,1-.09-1l4.93-.87a.5.5,0,0,1,.17,1l-4.92.86Zm9.85-1.7a.5.5,0,0,1-.08-1l4.94-.8a.5.5,0,1,1,.15,1l-4.93.81Zm9.87-1.59a.5.5,0,0,1-.07-1l4.94-.75a.5.5,0,1,1,.15,1c-1.66.24-3.3.49-4.94.75Zm9.89-1.47a.5.5,0,0,1-.07-1c1.64-.23,3.3-.47,5-.69a.5.5,0,1,1,.13,1c-1.66.22-3.31.46-4.95.69Zm9.91-1.35a.5.5,0,0,1-.07-1l5-.64a.5.5,0,0,1,.13,1c-1.66.2-3.31.42-5,.63Zm9.91-1.25a.5.5,0,0,1-.05-1l5-.58a.5.5,0,1,1,.12,1l-5,.59Zm9.94-1.14a.5.5,0,0,1-.06-1l5-.53a.5.5,0,0,1,.55.44.5.5,0,0,1-.45.55l-5,.53Zm9.94-1a.5.5,0,0,1-.05-1q2.49-.26,5-.48a.5.5,0,1,1,.1,1l-5,.48Zm10-.94a.5.5,0,0,1,0-1l5-.44a.5.5,0,1,1,.08,1l-5,.43Zm10-.85a.5.5,0,0,1-.5-.46.52.52,0,0,1,.46-.54l5-.38a.49.49,0,0,1,.53.46.5.5,0,0,1-.46.54l-5,.38Zm10-.75a.5.5,0,0,1-.5-.46.49.49,0,0,1,.47-.53l5-.34a.5.5,0,1,1,.06,1l-5,.34Zm10-.65a.51.51,0,0,1-.5-.47.5.5,0,0,1,.47-.53l5-.3a.49.49,0,0,1,.53.47.5.5,0,0,1-.47.53c-1.67.1-3.33.19-5,.3Z" style="fill:#263238"></path><path d="M262.6,414.9h-.82a.5.5,0,0,1,0-1h.82l4.17,0a.46.46,0,0,1,.51.49.5.5,0,0,1-.49.51Zm-5.82-.07h0q-2.5-.06-5-.18a.51.51,0,0,1-.48-.53.49.49,0,0,1,.52-.47c1.67.08,3.33.14,5,.18a.5.5,0,0,1,0,1Zm15-.11a.5.5,0,0,1,0-1c1.66-.07,3.32-.15,5-.26a.49.49,0,0,1,.53.47.49.49,0,0,1-.46.53c-1.67.11-3.34.19-5,.26Zm-25-.37h0c-1.67-.11-3.33-.25-5-.4a.51.51,0,0,1-.45-.55.52.52,0,0,1,.55-.45c1.65.15,3.31.29,5,.4a.51.51,0,0,1,.47.54A.5.5,0,0,1,246.79,414.35Zm35-.25a.51.51,0,0,1-.5-.46.5.5,0,0,1,.46-.54c1.66-.14,3.31-.3,5-.47a.5.5,0,1,1,.1,1c-1.66.18-3.32.34-5,.48Zm-44.94-.67h0c-1.67-.19-3.32-.4-5-.63a.5.5,0,0,1-.43-.56.51.51,0,0,1,.57-.43c1.64.23,3.3.44,4.95.63a.5.5,0,0,1-.06,1Zm54.89-.39a.5.5,0,0,1-.5-.43.49.49,0,0,1,.43-.56c1.65-.21,3.3-.44,4.94-.69a.5.5,0,0,1,.15,1c-1.65.25-3.3.48-5,.69Zm-64.8-1h-.08c-1.65-.26-3.3-.55-4.94-.85a.5.5,0,0,1,.18-1c1.64.3,3.28.58,4.92.85a.5.5,0,0,1-.08,1Zm74.68-.51a.5.5,0,0,1-.08-1c1.64-.29,3.27-.59,4.9-.91a.5.5,0,0,1,.2,1c-1.64.32-3.29.63-4.93.91Zm-84.52-1.3H217c-1.64-.35-3.27-.7-4.9-1.08a.5.5,0,0,1,.23-1c1.62.38,3.24.74,4.87,1.08a.5.5,0,0,1,.39.59A.51.51,0,0,1,217.07,410.26Zm94.34-.62a.5.5,0,0,1-.11-1c1.62-.36,3.25-.73,4.86-1.12a.51.51,0,0,1,.61.37.5.5,0,0,1-.37.6c-1.63.4-3.25.77-4.89,1.13ZM207.32,408l-.12,0c-1.62-.41-3.24-.85-4.84-1.3a.5.5,0,1,1,.27-1c1.6.46,3.2.89,4.82,1.3a.51.51,0,0,1,.36.61A.5.5,0,0,1,207.32,408Zm113.81-.7a.5.5,0,0,1-.49-.37.51.51,0,0,1,.36-.62c1.61-.42,3.21-.87,4.8-1.33a.5.5,0,0,1,.28,1c-1.6.47-3.21.91-4.83,1.34Zm-123.44-2-.14,0q-2.4-.75-4.78-1.54a.5.5,0,0,1,.32-.95q2.37.8,4.75,1.53a.51.51,0,0,1,.33.63A.5.5,0,0,1,197.69,405.27Zm133-.76a.51.51,0,0,1-.48-.35.51.51,0,0,1,.33-.63c1.59-.5,3.17-1,4.74-1.55a.51.51,0,0,1,.64.31.5.5,0,0,1-.32.64q-2.37.79-4.76,1.55Zm-142.52-2.42a.47.47,0,0,1-.17,0c-1.58-.57-3.14-1.16-4.7-1.77a.5.5,0,0,1,.37-.93c1.55.61,3.1,1.19,4.67,1.76a.5.5,0,0,1,.3.64A.52.52,0,0,1,188.21,402.09Zm152-.79a.5.5,0,0,1-.17-1q2.34-.85,4.67-1.77a.5.5,0,0,1,.36.94q-2.34.9-4.69,1.77A.51.51,0,0,1,340.2,401.3Zm-161.31-2.85a.43.43,0,0,1-.19,0c-1.55-.64-3.08-1.31-4.6-2a.5.5,0,0,1,.41-.92c1.51.69,3,1.35,4.57,2a.5.5,0,0,1,.27.66A.49.49,0,0,1,178.89,398.45Zm170.62-.79a.51.51,0,0,1-.46-.31.5.5,0,0,1,.27-.65q2.31-1,4.59-2a.51.51,0,0,1,.66.26.5.5,0,0,1-.26.66q-2.3,1-4.6,2A.71.71,0,0,1,349.51,397.66Zm-179.74-3.31a.54.54,0,0,1-.22,0c-1.51-.73-3-1.47-4.49-2.23a.5.5,0,1,1,.46-.89c1.48.76,3,1.49,4.46,2.21a.5.5,0,0,1-.21,1Zm188.91-.72a.5.5,0,0,1-.21-.95q2.26-1.05,4.51-2.14a.5.5,0,0,1,.44.9q-2.26,1.1-4.53,2.15A.52.52,0,0,1,358.68,393.63ZM160.87,389.8a.5.5,0,0,1-.24-.06c-1.47-.8-2.94-1.63-4.37-2.46a.5.5,0,0,1,.5-.86c1.43.82,2.89,1.64,4.35,2.44a.51.51,0,0,1,.2.68A.52.52,0,0,1,160.87,389.8Zm206.81-.54a.5.5,0,0,1-.23-.95q2.22-1.14,4.42-2.31a.51.51,0,0,1,.68.2.5.5,0,0,1-.21.68q-2.2,1.19-4.44,2.32A.46.46,0,0,1,367.68,389.26Zm-215.46-4.47a.5.5,0,0,1-.26-.08c-1.43-.88-2.85-1.78-4.23-2.68a.5.5,0,0,1-.15-.69.51.51,0,0,1,.7-.15c1.37.9,2.78,1.8,4.2,2.67a.5.5,0,0,1,.17.69A.52.52,0,0,1,152.22,384.79Zm224.27-.26a.53.53,0,0,1-.44-.26.51.51,0,0,1,.19-.68q2.17-1.23,4.33-2.49a.49.49,0,0,1,.68.17.51.51,0,0,1-.17.69q-2.16,1.28-4.35,2.5A.51.51,0,0,1,376.49,384.53Zm8.61-5.09a.5.5,0,0,1-.26-.93c1.41-.87,2.82-1.76,4.21-2.67a.5.5,0,0,1,.55.84c-1.4.91-2.82,1.8-4.23,2.68A.56.56,0,0,1,385.1,379.44Zm-241.24-.12a.51.51,0,0,1-.29-.08c-1.37-.95-2.74-1.93-4.08-2.91a.5.5,0,0,1,.59-.81c1.33,1,2.7,2,4.06,2.89a.5.5,0,0,1-.28.91ZM393.49,374a.48.48,0,0,1-.41-.21.5.5,0,0,1,.13-.7c1.37-.93,2.74-1.89,4.09-2.85a.5.5,0,0,1,.7.12.49.49,0,0,1-.12.69q-2,1.45-4.11,2.87A.48.48,0,0,1,393.49,374Zm-257.69-.57a.45.45,0,0,1-.3-.11c-1.32-1-2.64-2.07-3.91-3.12a.49.49,0,0,1-.07-.7.49.49,0,0,1,.7-.07c1.27,1,2.58,2.09,3.89,3.11a.49.49,0,0,1,.09.7A.53.53,0,0,1,135.8,373.42Zm265.83-5.23a.51.51,0,0,1-.4-.2.5.5,0,0,1,.1-.7q2-1.5,4-3a.5.5,0,0,1,.61.79c-1.31,1-2.64,2-4,3A.57.57,0,0,1,401.63,368.19Zm-273.54-1.11a.52.52,0,0,1-.33-.12c-1.25-1.09-2.51-2.21-3.73-3.33a.5.5,0,1,1,.68-.74c1.21,1.12,2.46,2.23,3.71,3.32a.49.49,0,0,1,.05.7A.48.48,0,0,1,128.09,367.08ZM409.49,362a.48.48,0,0,1-.38-.18.49.49,0,0,1,.06-.7q1.93-1.59,3.81-3.22a.5.5,0,1,1,.66.76q-1.89,1.63-3.83,3.23A.54.54,0,0,1,409.49,362Zm-288.74-1.68a.49.49,0,0,1-.35-.14c-1.2-1.16-2.39-2.35-3.53-3.53a.5.5,0,1,1,.72-.7c1.14,1.17,2.32,2.36,3.51,3.52a.49.49,0,0,1,0,.7A.51.51,0,0,1,120.75,360.33Zm296.3-4.86a.5.5,0,0,1-.33-.87q1.84-1.68,3.64-3.4a.5.5,0,0,1,.71,0,.49.49,0,0,1,0,.7q-1.8,1.74-3.66,3.42A.5.5,0,0,1,417.05,355.47Zm-303.26-2.3a.46.46,0,0,1-.36-.16c-1.13-1.23-2.26-2.48-3.34-3.74a.5.5,0,1,1,.75-.65c1.08,1.24,2.2,2.49,3.32,3.72a.48.48,0,0,1,0,.7A.47.47,0,0,1,113.79,353.17Zm310.49-4.61a.5.5,0,0,1-.36-.14.51.51,0,0,1,0-.71q1.75-1.77,3.47-3.58a.5.5,0,0,1,.73.68q-1.72,1.83-3.49,3.61A.52.52,0,0,1,424.28,348.56Zm-317-2.94a.5.5,0,0,1-.39-.18c-1-1.28-2.1-2.6-3.12-3.93a.5.5,0,0,1,.79-.61c1,1.32,2.06,2.63,3.1,3.9a.5.5,0,0,1-.07.71A.51.51,0,0,1,107.25,345.62Zm323.88-4.33a.46.46,0,0,1-.33-.13.5.5,0,0,1,0-.71c1.1-1.23,2.2-2.5,3.27-3.76a.5.5,0,0,1,.76.64c-1.07,1.27-2.18,2.55-3.29,3.79A.5.5,0,0,1,431.13,341.29Zm-330-3.58a.48.48,0,0,1-.4-.21c-1-1.35-2-2.73-2.89-4.09a.5.5,0,0,1,.13-.7.49.49,0,0,1,.69.13c.93,1.36,1.9,2.73,2.88,4.07a.51.51,0,0,1-.11.7A.49.49,0,0,1,101.14,337.71Zm336.44-4.06a.5.5,0,0,1-.39-.82c1-1.3,2.06-2.62,3.05-3.94a.5.5,0,0,1,.7-.1.51.51,0,0,1,.1.7c-1,1.32-2,2.66-3.07,4A.51.51,0,0,1,437.58,333.65ZM95.49,329.46a.51.51,0,0,1-.42-.23c-.9-1.41-1.8-2.84-2.65-4.25a.5.5,0,0,1,.17-.69.49.49,0,0,1,.68.17c.85,1.41,1.74,2.83,2.64,4.23a.49.49,0,0,1-.15.69A.5.5,0,0,1,95.49,329.46Zm348.09-3.81a.52.52,0,0,1-.29-.09.51.51,0,0,1-.12-.7c1-1.36,1.91-2.74,2.82-4.11a.5.5,0,1,1,.83.55c-.91,1.38-1.86,2.77-2.83,4.14A.49.49,0,0,1,443.58,325.65ZM90.32,320.9a.51.51,0,0,1-.44-.25l-.68-1.21q-.89-1.57-1.74-3.18a.49.49,0,0,1,.2-.67.5.5,0,0,1,.68.2c.57,1.07,1.15,2.12,1.73,3.17l.68,1.2a.49.49,0,0,1-.18.68A.57.57,0,0,1,90.32,320.9Zm358.79-3.59a.52.52,0,0,1-.27-.07.51.51,0,0,1-.16-.69c.88-1.43,1.74-2.87,2.56-4.28a.49.49,0,0,1,.68-.18.5.5,0,0,1,.19.68c-.83,1.42-1.69,2.87-2.58,4.3A.48.48,0,0,1,449.11,317.31Zm-363.5-5.22a.51.51,0,0,1-.45-.28c-.77-1.55-1.49-3.08-2.14-4.55a.5.5,0,0,1,.26-.66.51.51,0,0,1,.66.26c.64,1.45,1.36,3,2.12,4.5a.5.5,0,0,1-.23.67A.46.46,0,0,1,85.61,312.09Zm368.5-3.44a.53.53,0,0,1-.24-.06.51.51,0,0,1-.2-.68c.78-1.47,1.55-3,2.28-4.43a.51.51,0,0,1,.67-.22.5.5,0,0,1,.23.67c-.74,1.48-1.51,3-2.3,4.45A.5.5,0,0,1,454.11,308.65ZM81.56,302.94a.48.48,0,0,1-.46-.32c-.62-1.6-1.18-3.2-1.67-4.75a.5.5,0,0,1,1-.3c.48,1.53,1,3.11,1.64,4.69a.5.5,0,0,1-.29.65Zm377-3.24a.54.54,0,0,1-.21-.05.51.51,0,0,1-.25-.66c.69-1.5,1.36-3,2-4.56a.5.5,0,1,1,.92.39c-.65,1.54-1.33,3.08-2,4.58A.49.49,0,0,1,458.56,299.7Zm-380-6.29a.51.51,0,0,1-.49-.39q-.27-1.17-.51-2.34a.5.5,0,1,1,1-.19c.15.77.31,1.54.49,2.3a.49.49,0,0,1-.37.6Zm383.87-2.92a.39.39,0,0,1-.18,0,.5.5,0,0,1-.29-.64c.6-1.56,1.19-3.13,1.73-4.68a.5.5,0,0,1,1,.34c-.56,1.55-1.14,3.14-1.74,4.7A.51.51,0,0,1,462.45,290.49Zm3.33-9.43-.15,0a.5.5,0,0,1-.32-.63c.5-1.58,1-3.18,1.45-4.77a.5.5,0,1,1,1,.28c-.46,1.6-1,3.21-1.46,4.79A.5.5,0,0,1,465.78,281.06Zm2.78-9.6-.12,0a.5.5,0,0,1-.36-.61c.41-1.59.8-3.22,1.18-4.84a.49.49,0,0,1,.59-.38.5.5,0,0,1,.38.6c-.37,1.63-.77,3.27-1.18,4.87A.51.51,0,0,1,468.56,271.46Zm2.23-9.75h-.1a.49.49,0,0,1-.39-.59c.32-1.6.62-3.25.9-4.9a.5.5,0,0,1,1,.17c-.28,1.66-.59,3.32-.91,4.93A.51.51,0,0,1,470.79,261.71Zm1.68-9.86h-.07a.5.5,0,0,1-.42-.57c.23-1.64.45-3.29.64-4.94a.5.5,0,1,1,1,.11c-.19,1.66-.41,3.32-.64,5A.51.51,0,0,1,472.47,251.85Zm1.16-9.93h-.05a.5.5,0,0,1-.45-.54c.15-1.66.27-3.32.38-5a.47.47,0,0,1,.53-.46.49.49,0,0,1,.46.53c-.1,1.66-.23,3.33-.38,5A.49.49,0,0,1,473.63,241.92Zm.63-10h0a.5.5,0,0,1-.48-.52q.09-2.49.12-5a.47.47,0,0,1,.5-.5.51.51,0,0,1,.5.51q0,2.51-.12,5A.51.51,0,0,1,474.26,231.94Zm.11-10a.51.51,0,0,1-.5-.49c0-1.66-.06-3.32-.13-5a.5.5,0,0,1,.48-.51.49.49,0,0,1,.52.48c.07,1.67.11,3.34.13,5a.49.49,0,0,1-.49.5ZM474,212a.5.5,0,0,1-.5-.47c-.1-1.66-.23-3.31-.37-5a.49.49,0,0,1,.45-.54.49.49,0,0,1,.54.45c.15,1.67.27,3.33.38,5a.5.5,0,0,1-.47.53Zm-.88-10a.5.5,0,0,1-.49-.44c-.19-1.66-.39-3.31-.62-5a.5.5,0,0,1,.43-.57.51.51,0,0,1,.56.43c.23,1.66.43,3.31.62,5a.5.5,0,0,1-.44.55Zm-1.35-9.91a.5.5,0,0,1-.5-.42c-.26-1.64-.55-3.28-.85-4.91a.5.5,0,0,1,1-.18c.31,1.64.6,3.28.86,4.93a.5.5,0,0,1-.41.58Zm-1.84-9.83a.49.49,0,0,1-.48-.39l-.1-.43c-.31-1.48-.65-3-1-4.43a.51.51,0,0,1,.37-.61.5.5,0,0,1,.6.37c.36,1.47.71,3,1,4.46l.09.43a.49.49,0,0,1-.38.59Zm-2.37-9.71a.5.5,0,0,1-.48-.37c-.46-1.62-.94-3.23-1.44-4.77a.51.51,0,0,1,.33-.63.51.51,0,0,1,.63.33c.5,1.55,1,3.17,1.44,4.8a.5.5,0,0,1-.35.62ZM464.49,163a.51.51,0,0,1-.47-.33c-.57-1.58-1.18-3.14-1.8-4.64a.5.5,0,0,1,.27-.66.51.51,0,0,1,.65.27c.63,1.52,1.24,3.1,1.82,4.68a.52.52,0,0,1-.3.65A.47.47,0,0,1,464.49,163Zm-3.83-9.24a.48.48,0,0,1-.45-.28c-.72-1.53-1.47-3-2.23-4.45a.5.5,0,0,1,.21-.68.49.49,0,0,1,.67.21c.77,1.44,1.53,2.95,2.25,4.49a.49.49,0,0,1-.24.66A.41.41,0,0,1,460.66,153.78ZM456,145a.52.52,0,0,1-.43-.24c-.86-1.44-1.77-2.84-2.69-4.18a.5.5,0,0,1,.12-.69.5.5,0,0,1,.7.13c.93,1.35,1.85,2.77,2.73,4.22a.51.51,0,0,1-.43.76Zm-5.68-8.22a.49.49,0,0,1-.39-.19c-1-1.31-2.11-2.58-3.21-3.79a.5.5,0,1,1,.74-.67c1.11,1.22,2.21,2.52,3.25,3.84a.49.49,0,0,1-.08.7A.51.51,0,0,1,450.27,136.75Zm-6.72-7.39a.52.52,0,0,1-.35-.14c-1.2-1.15-2.45-2.25-3.72-3.28a.52.52,0,0,1-.07-.71.5.5,0,0,1,.7-.07c1.29,1,2.56,2.17,3.78,3.33a.5.5,0,0,1,0,.71A.52.52,0,0,1,443.55,129.36Z" style="fill:#263238"></path></g><g id="freepik--Tab--inject-22"><rect x="29.65" y="44.81" width="272.23" height="269.96" rx="7.49" style="fill:#263238"></rect><rect x="36.21" y="38.53" width="272.23" height="269.96" rx="7.49" style="fill:#BFEFEA"></rect><path d="M301,309H43.69a8,8,0,0,1-8-8V46a8,8,0,0,1,8-8H301a8,8,0,0,1,8,8V301A8,8,0,0,1,301,309ZM43.69,39a7,7,0,0,0-7,7V301a7,7,0,0,0,7,7H301a7,7,0,0,0,7-7V46a7,7,0,0,0-7-7Z" style="fill:#263238"></path><rect x="92.21" y="198.71" width="160.39" height="29.23" rx="12.3" style="fill:#fff"></rect><path d="M240.31,228.45H104.51a12.81,12.81,0,0,1-12.8-12.8V211a12.82,12.82,0,0,1,12.8-12.8h135.8A12.82,12.82,0,0,1,253.1,211v4.64A12.81,12.81,0,0,1,240.31,228.45Zm-135.8-29.24A11.82,11.82,0,0,0,92.71,211v4.64a11.82,11.82,0,0,0,11.8,11.8h135.8a11.81,11.81,0,0,0,11.79-11.8V211a11.81,11.81,0,0,0-11.79-11.8Z" style="fill:#263238"></path><rect x="92.21" y="139.97" width="160.39" height="29.23" rx="12.3" style="fill:#fff"></rect><path d="M240.31,169.7H104.51a12.81,12.81,0,0,1-12.8-12.8v-4.64a12.81,12.81,0,0,1,12.8-12.79h135.8a12.81,12.81,0,0,1,12.79,12.79v4.64A12.81,12.81,0,0,1,240.31,169.7Zm-135.8-29.23a11.81,11.81,0,0,0-11.8,11.79v4.64a11.82,11.82,0,0,0,11.8,11.8h135.8a11.81,11.81,0,0,0,11.79-11.8v-4.64a11.8,11.8,0,0,0-11.79-11.79Z" style="fill:#263238"></path><rect x="117.92" y="245.93" width="108.98" height="29.23" rx="12.3" style="fill:#263238"></rect><path d="M308.43,60.06v-13a8.54,8.54,0,0,0-8.54-8.55H44.75a8.54,8.54,0,0,0-8.54,8.55v13Z" style="fill:#263238"></path><path d="M308.44,60.56H36.21a.5.5,0,0,1-.5-.5v-13a9.06,9.06,0,0,1,9-9H299.89a9.06,9.06,0,0,1,9.05,9v13A.5.5,0,0,1,308.44,60.56Zm-271.73-1H307.94V47.08a8.06,8.06,0,0,0-8.05-8H44.76a8.06,8.06,0,0,0-8,8Z" style="fill:#263238"></path><circle cx="269" cy="50.64" r="3.95" style="fill:#fff"></circle><path d="M269,55.09a4.45,4.45,0,1,1,4.45-4.45A4.46,4.46,0,0,1,269,55.09Zm0-7.9a3.45,3.45,0,1,0,3.45,3.45A3.46,3.46,0,0,0,269,47.19Z" style="fill:#263238"></path><circle cx="282.33" cy="50.64" r="3.95" style="fill:#fff"></circle><path d="M282.33,55.09a4.45,4.45,0,1,1,4.45-4.45A4.45,4.45,0,0,1,282.33,55.09Zm0-7.9a3.45,3.45,0,1,0,3.45,3.45A3.45,3.45,0,0,0,282.33,47.19Z" style="fill:#263238"></path><path d="M299.6,50.64a4,4,0,1,0-4,4A4,4,0,0,0,299.6,50.64Z" style="fill:#fff"></path><path d="M295.65,55.09a4.45,4.45,0,1,1,4.45-4.45A4.46,4.46,0,0,1,295.65,55.09Zm0-7.9a3.45,3.45,0,1,0,3.45,3.45A3.46,3.46,0,0,0,295.65,47.19Z" style="fill:#263238"></path><path d="M107.83,216.3l-1.31-.79,1.65-2.32-2.47-.94.55-1.42,2.35,1.25-.25-2.87H110l-.27,2.87,2.38-1.25.52,1.42-2.46,1,1.67,2.3-1.36.79-1.33-2.61Z" style="fill:#263238"></path><path d="M116.13,216.3l-1.31-.79,1.65-2.32-2.46-.94.54-1.42,2.35,1.25-.25-2.87h1.69l-.27,2.87,2.38-1.25.52,1.42-2.46,1,1.67,2.3-1.36.79-1.33-2.61Z" style="fill:#263238"></path><path d="M124.44,216.3l-1.32-.79,1.65-2.32-2.46-.94.54-1.42,2.36,1.25-.25-2.87h1.69l-.28,2.87,2.38-1.25.52,1.42-2.46,1,1.67,2.3-1.35.79-1.34-2.61Z" style="fill:#263238"></path><path d="M132.74,216.3l-1.32-.79,1.65-2.32-2.46-.94.54-1.42,2.36,1.25-.25-2.87H135l-.27,2.87,2.37-1.25.53,1.42-2.47,1,1.67,2.3-1.35.79-1.34-2.61Z" style="fill:#263238"></path><path d="M141,216.3l-1.32-.79,1.65-2.32-2.46-.94.54-1.42,2.36,1.25-.25-2.87h1.69l-.27,2.87,2.38-1.25.52,1.42-2.46,1,1.66,2.3-1.35.79-1.34-2.61Z" style="fill:#263238"></path><path d="M149.34,216.3l-1.31-.79,1.64-2.32-2.46-.94.54-1.42,2.36,1.25-.25-2.87h1.69l-.27,2.87,2.38-1.25.52,1.42-2.46,1,1.67,2.3-1.36.79-1.33-2.61Z" style="fill:#263238"></path><path d="M157.64,216.3l-1.31-.79,1.64-2.32-2.46-.94.55-1.42,2.35,1.25-.25-2.87h1.69l-.27,2.87,2.38-1.25.52,1.42-2.46,1,1.67,2.3-1.36.79L159,213.69Z" style="fill:#263238"></path><path d="M165.94,216.3l-1.31-.79,1.65-2.32-2.46-.94.54-1.42,2.35,1.25-.25-2.87h1.69l-.27,2.87,2.38-1.25.52,1.42-2.46,1,1.67,2.3-1.36.79-1.33-2.61Z" style="fill:#263238"></path><path d="M174.24,216.3l-1.31-.79,1.65-2.32-2.46-.94.54-1.42,2.36,1.25-.25-2.87h1.69l-.28,2.87,2.38-1.25.52,1.42-2.46,1,1.67,2.3-1.35.79-1.34-2.61Z" style="fill:#263238"></path><path d="M182.55,216.3l-1.32-.79,1.65-2.32-2.46-.94.54-1.42,2.36,1.25-.25-2.87h1.69l-.27,2.87,2.37-1.25.52,1.42-2.46,1,1.67,2.3-1.35.79-1.34-2.61Z" style="fill:#263238"></path><path d="M190.85,216.3l-1.32-.79,1.65-2.32-2.46-.94.54-1.42,2.36,1.25-.25-2.87h1.69l-.27,2.87,2.38-1.25.52,1.42-2.46,1,1.66,2.3-1.35.79-1.34-2.61Z" style="fill:#263238"></path><path d="M199.15,216.3l-1.31-.79,1.64-2.32-2.46-.94.54-1.42,2.36,1.25-.25-2.87h1.69l-.27,2.87,2.38-1.25.52,1.42-2.46,1,1.67,2.3-1.36.79-1.34-2.61Z" style="fill:#263238"></path><path d="M207.45,216.3l-1.31-.79,1.64-2.32-2.46-.94.55-1.42,2.35,1.25-.25-2.87h1.69l-.27,2.87,2.38-1.25.52,1.42-2.46,1,1.67,2.3-1.36.79-1.33-2.61Z" style="fill:#263238"></path><path d="M215.75,216.3l-1.31-.79,1.65-2.32-2.47-.94.55-1.42,2.35,1.25-.25-2.87H218l-.27,2.87,2.38-1.25.52,1.42-2.46,1,1.67,2.3-1.36.79-1.33-2.61Z" style="fill:#263238"></path><path d="M224.05,216.3l-1.31-.79,1.65-2.32-2.46-.94.54-1.42,2.36,1.25-.26-2.87h1.69l-.27,2.87,2.38-1.25.52,1.42-2.46,1,1.67,2.3-1.36.79-1.33-2.61Z" style="fill:#263238"></path><path d="M232.36,216.3l-1.32-.79,1.65-2.32-2.46-.94.54-1.42,2.36,1.25-.25-2.87h1.69l-.28,2.87,2.38-1.25.52,1.42-2.46,1,1.67,2.3-1.35.79-1.34-2.61Z" style="fill:#263238"></path><path d="M107.83,157.55l-1.31-.79,1.65-2.32-2.47-.94.55-1.42,2.35,1.26-.25-2.88H110l-.27,2.88,2.38-1.26.52,1.42-2.46,1,1.67,2.3-1.36.79-1.33-2.61Z" style="fill:#263238"></path><path d="M116.13,157.55l-1.31-.79,1.65-2.32L114,153.5l.54-1.42,2.35,1.26-.25-2.88h1.69l-.27,2.88,2.38-1.26.52,1.42-2.46,1,1.67,2.3-1.36.79-1.33-2.61Z" style="fill:#263238"></path><path d="M124.44,157.55l-1.32-.79,1.65-2.32-2.46-.94.54-1.42,2.36,1.26-.25-2.88h1.69l-.28,2.88,2.38-1.26.52,1.42-2.46,1,1.67,2.3-1.35.79-1.34-2.61Z" style="fill:#263238"></path><path d="M132.74,157.55l-1.32-.79,1.65-2.32-2.46-.94.54-1.42,2.36,1.26-.25-2.88H135l-.27,2.88,2.37-1.26.53,1.42-2.47,1,1.67,2.3-1.35.79-1.34-2.61Z" style="fill:#263238"></path><path d="M141,157.55l-1.32-.79,1.65-2.32-2.46-.94.54-1.42,2.36,1.26-.25-2.88h1.69l-.27,2.88,2.38-1.26.52,1.42-2.46,1,1.66,2.3-1.35.79-1.34-2.61Z" style="fill:#263238"></path><path d="M149.34,157.55l-1.31-.79,1.64-2.32-2.46-.94.54-1.42,2.36,1.26-.25-2.88h1.69l-.27,2.88,2.38-1.26.52,1.42-2.46,1,1.67,2.3-1.36.79-1.33-2.61Z" style="fill:#263238"></path><path d="M157.64,157.55l-1.31-.79,1.64-2.32-2.46-.94.55-1.42,2.35,1.26-.25-2.88h1.69l-.27,2.88,2.38-1.26.52,1.42-2.46,1,1.67,2.3-1.36.79L159,154.94Z" style="fill:#263238"></path><path d="M165.94,157.55l-1.31-.79,1.65-2.32-2.46-.94.54-1.42,2.35,1.26-.25-2.88h1.69l-.27,2.88,2.38-1.26.52,1.42-2.46,1,1.67,2.3-1.36.79-1.33-2.61Z" style="fill:#263238"></path><path d="M174.24,157.55l-1.31-.79,1.65-2.32-2.46-.94.54-1.42,2.36,1.26-.25-2.88h1.69l-.28,2.88,2.38-1.26.52,1.42-2.46,1,1.67,2.3-1.35.79-1.34-2.61Z" style="fill:#263238"></path><path d="M182.55,157.55l-1.32-.79,1.65-2.32-2.46-.94.54-1.42,2.36,1.26-.25-2.88h1.69l-.27,2.88,2.37-1.26.52,1.42-2.46,1,1.67,2.3-1.35.79-1.34-2.61Z" style="fill:#263238"></path><path d="M190.85,157.55l-1.32-.79,1.65-2.32-2.46-.94.54-1.42,2.36,1.26-.25-2.88h1.69l-.27,2.88,2.38-1.26.52,1.42-2.46,1,1.66,2.3-1.35.79-1.34-2.61Z" style="fill:#263238"></path><path d="M199.15,157.55l-1.31-.79,1.64-2.32L197,153.5l.54-1.42,2.36,1.26-.25-2.88h1.69l-.27,2.88,2.38-1.26.52,1.42-2.46,1,1.67,2.3-1.36.79-1.34-2.61Z" style="fill:#263238"></path><path d="M207.45,157.55l-1.31-.79,1.64-2.32-2.46-.94.55-1.42,2.35,1.26-.25-2.88h1.69l-.27,2.88,2.38-1.26.52,1.42-2.46,1,1.67,2.3-1.36.79-1.33-2.61Z" style="fill:#263238"></path><path d="M215.75,157.55l-1.31-.79,1.65-2.32-2.47-.94.55-1.42,2.35,1.26-.25-2.88H218l-.27,2.88,2.38-1.26.52,1.42-2.46,1,1.67,2.3-1.36.79-1.33-2.61Z" style="fill:#263238"></path><path d="M224.05,157.55l-1.31-.79,1.65-2.32-2.46-.94.54-1.42,2.36,1.26-.26-2.88h1.69l-.27,2.88,2.38-1.26.52,1.42-2.46,1,1.67,2.3-1.36.79-1.33-2.61Z" style="fill:#263238"></path><path d="M232.36,157.55l-1.32-.79,1.65-2.32-2.46-.94.54-1.42,2.36,1.26-.25-2.88h1.69l-.28,2.88,2.38-1.26.52,1.42-2.46,1,1.67,2.3-1.35.79-1.34-2.61Z" style="fill:#263238"></path><path d="M149.36,132v-8.67h2.15a2.38,2.38,0,0,1,1.25.29,1.68,1.68,0,0,1,.68.82,3.48,3.48,0,0,1,.21,1.29,2.75,2.75,0,0,1-.24,1.19,1.76,1.76,0,0,1-.71.77,2.27,2.27,0,0,1-1.18.28h-1v4Zm1.21-4.9h.55A2.31,2.31,0,0,0,152,127a.75.75,0,0,0,.43-.41,2.25,2.25,0,0,0,.13-.83,3.76,3.76,0,0,0-.1-1,.64.64,0,0,0-.38-.46,2.22,2.22,0,0,0-.89-.13h-.57Z" style="fill:#263238"></path><path d="M153.62,132l1.84-8.67h1.16l1.85,8.67h-1.14l-.4-2.18h-1.76l-.42,2.18Zm1.71-3.05h1.44l-.72-3.9Z" style="fill:#263238"></path><path d="M161.39,132.13a2.28,2.28,0,0,1-1.24-.32,2.2,2.2,0,0,1-.76-.89,3.77,3.77,0,0,1-.3-1.32l1.07-.29a5,5,0,0,0,.15.89,1.52,1.52,0,0,0,.37.7.93.93,0,0,0,.71.27.91.91,0,0,0,.72-.26,1.06,1.06,0,0,0,.24-.75,1.55,1.55,0,0,0-.27-.95,4.9,4.9,0,0,0-.67-.72L160,127.2a2.38,2.38,0,0,1-.63-.81,2.58,2.58,0,0,1-.2-1.1,2,2,0,0,1,.54-1.48,2.07,2.07,0,0,1,1.49-.52,2.75,2.75,0,0,1,.9.13,1.72,1.72,0,0,1,.66.41,2,2,0,0,1,.41.71,3.46,3.46,0,0,1,.21,1l-1,.28a4.55,4.55,0,0,0-.12-.78,1.24,1.24,0,0,0-.34-.58,1.17,1.17,0,0,0-1.39,0,.93.93,0,0,0-.25.71,1.37,1.37,0,0,0,.13.65,1.82,1.82,0,0,0,.43.53l1.47,1.28a4.79,4.79,0,0,1,.87,1,2.6,2.6,0,0,1,.37,1.41,2.17,2.17,0,0,1-.27,1.11,1.78,1.78,0,0,1-.73.71A2.33,2.33,0,0,1,161.39,132.13Z" style="fill:#263238"></path><path d="M166.46,132.13a2.3,2.3,0,0,1-1.25-.32,2.2,2.2,0,0,1-.76-.89,3.77,3.77,0,0,1-.3-1.32l1.07-.29a5,5,0,0,0,.15.89,1.52,1.52,0,0,0,.37.7.94.94,0,0,0,.72.27.9.9,0,0,0,.71-.26,1.06,1.06,0,0,0,.24-.75,1.55,1.55,0,0,0-.27-.95,4.9,4.9,0,0,0-.67-.72L165,127.2a2.51,2.51,0,0,1-.63-.81,2.58,2.58,0,0,1-.2-1.1,2,2,0,0,1,.54-1.48,2.07,2.07,0,0,1,1.49-.52,2.75,2.75,0,0,1,.9.13,1.72,1.72,0,0,1,.66.41,2,2,0,0,1,.41.71,3.46,3.46,0,0,1,.21,1l-1,.28a4.55,4.55,0,0,0-.12-.78,1.24,1.24,0,0,0-.34-.58,1.17,1.17,0,0,0-1.39,0,.93.93,0,0,0-.25.71,1.37,1.37,0,0,0,.13.65,1.82,1.82,0,0,0,.43.53l1.47,1.28a4.79,4.79,0,0,1,.87,1,2.6,2.6,0,0,1,.37,1.41,2.17,2.17,0,0,1-.27,1.11,1.78,1.78,0,0,1-.73.71A2.31,2.31,0,0,1,166.46,132.13Z" style="fill:#263238"></path><path d="M170.6,132l-1.42-8.67h1l.93,6.23,1.17-6.19h.85l1.18,6.22.91-6.26h1L174.82,132h-.88l-1.2-6.42L171.52,132Z" style="fill:#263238"></path><path d="M179.4,132.13a2.52,2.52,0,0,1-1.4-.35,1.82,1.82,0,0,1-.75-1,4.45,4.45,0,0,1-.22-1.49V126a4.05,4.05,0,0,1,.23-1.47,1.8,1.8,0,0,1,.74-.94,2.61,2.61,0,0,1,1.4-.33,2.55,2.55,0,0,1,1.39.33,1.88,1.88,0,0,1,.74.94,4.05,4.05,0,0,1,.23,1.47v3.29a4.15,4.15,0,0,1-.23,1.48,1.94,1.94,0,0,1-.74,1A2.46,2.46,0,0,1,179.4,132.13Zm0-1a1.18,1.18,0,0,0,.73-.19,1.05,1.05,0,0,0,.33-.56,3.49,3.49,0,0,0,.09-.84v-3.8a3.34,3.34,0,0,0-.09-.83.93.93,0,0,0-.33-.53,1.18,1.18,0,0,0-.73-.19,1.16,1.16,0,0,0-.73.19.9.9,0,0,0-.34.53,3.34,3.34,0,0,0-.09.83v3.8a3.49,3.49,0,0,0,.09.84,1,1,0,0,0,.34.56A1.16,1.16,0,0,0,179.4,131.17Z" style="fill:#263238"></path><path d="M183,132v-8.67h1.75a3.93,3.93,0,0,1,1.43.23,1.61,1.61,0,0,1,.84.74,2.86,2.86,0,0,1,.27,1.33,3.32,3.32,0,0,1-.11.92,1.66,1.66,0,0,1-.34.69,1.32,1.32,0,0,1-.62.42L187.4,132h-1.16L185.1,128h-.94V132Zm1.21-4.93h.46a2.16,2.16,0,0,0,.83-.13.87.87,0,0,0,.48-.44,2.06,2.06,0,0,0,.15-.87,1.74,1.74,0,0,0-.28-1.09,1.39,1.39,0,0,0-1.1-.34h-.54Z" style="fill:#263238"></path><path d="M188.5,132v-8.67h1.89a3.23,3.23,0,0,1,1.52.3,1.64,1.64,0,0,1,.8.88A3.9,3.9,0,0,1,193,126v3.18a4.45,4.45,0,0,1-.24,1.56,1.8,1.8,0,0,1-.78.95,2.76,2.76,0,0,1-1.45.33Zm1.21-.87h.69a1.39,1.39,0,0,0,.94-.25,1.2,1.2,0,0,0,.34-.75,10.12,10.12,0,0,0,.06-1.19v-2.81a5.46,5.46,0,0,0-.09-1.1.91.91,0,0,0-.37-.6,1.68,1.68,0,0,0-.91-.2h-.66Z" style="fill:#263238"></path><path d="M90.23,100.49V86.62h3.6a8.09,8.09,0,0,1,2.41.32,2.81,2.81,0,0,1,1.54,1.12,4,4,0,0,1,.54,2.23,6.83,6.83,0,0,1-.15,1.51A3.09,3.09,0,0,1,97.66,93a2.47,2.47,0,0,1-1,.78l1.92,6.76h-2.9l-1.59-6.28h-1v6.28Zm2.83-8h.82A2.17,2.17,0,0,0,95,92.31a1.26,1.26,0,0,0,.56-.68,3.59,3.59,0,0,0,.16-1.12,2.56,2.56,0,0,0-.35-1.46A1.49,1.49,0,0,0,94,88.54h-1Z" style="fill:#263238"></path><path d="M100.17,100.49V86.62h6v1.95H103v3.69h2.49v2H103v4.35h3.26v1.91Z" style="fill:#263238"></path><path d="M111.26,100.68a4.34,4.34,0,0,1-2.14-.47,3,3,0,0,1-1.29-1.42,6.46,6.46,0,0,1-.5-2.42l2.43-.41a6.77,6.77,0,0,0,.18,1.43,1.67,1.67,0,0,0,.44.85,1,1,0,0,0,.75.28.78.78,0,0,0,.74-.34,1.57,1.57,0,0,0,.2-.79,2.45,2.45,0,0,0-.42-1.46,7.07,7.07,0,0,0-1.11-1.19l-1.43-1.25A5.63,5.63,0,0,1,107.85,92a3.88,3.88,0,0,1-.49-2,3.36,3.36,0,0,1,1-2.63,3.94,3.94,0,0,1,2.75-.92,3.82,3.82,0,0,1,1.71.34,2.67,2.67,0,0,1,1,.92,3.71,3.71,0,0,1,.51,1.25,7.83,7.83,0,0,1,.18,1.34l-2.41.36c0-.42-.06-.79-.11-1.11a1.62,1.62,0,0,0-.31-.75.86.86,0,0,0-.7-.28.82.82,0,0,0-.73.37,1.47,1.47,0,0,0-.24.81,2,2,0,0,0,.33,1.21,5.83,5.83,0,0,0,.92,1l1.4,1.23a8.21,8.21,0,0,1,1.5,1.72,4.3,4.3,0,0,1,.63,2.39,3.47,3.47,0,0,1-.45,1.76,3.21,3.21,0,0,1-1.24,1.24A3.87,3.87,0,0,1,111.26,100.68Z" style="fill:#263238"></path><path d="M116.09,100.49V86.62h6v1.95h-3.22v3.69h2.48v2h-2.48v4.35h3.25v1.91Z" style="fill:#263238"></path><path d="M124.9,100.49V88.73h-2.14V86.62h7.09v2.11h-2.11v11.76Z" style="fill:#263238"></path><path d="M137.19,100.49V95l-2.7-8.38h2.65l1.49,4.88L140,86.62h2.57L139.92,95v5.49Z" style="fill:#263238"></path><path d="M147.42,100.68a4.57,4.57,0,0,1-2.42-.55,3,3,0,0,1-1.27-1.56,6.86,6.86,0,0,1-.39-2.44V91a6.8,6.8,0,0,1,.39-2.43A3,3,0,0,1,145,87a5.79,5.79,0,0,1,4.86,0,3,3,0,0,1,1.28,1.54,6.71,6.71,0,0,1,.39,2.42v5.18a6.86,6.86,0,0,1-.39,2.44,3,3,0,0,1-1.28,1.56A4.64,4.64,0,0,1,147.42,100.68Zm0-2a1.14,1.14,0,0,0,.8-.24,1.23,1.23,0,0,0,.34-.67,4.29,4.29,0,0,0,.09-.9V90.27a4.13,4.13,0,0,0-.09-.89,1.23,1.23,0,0,0-.34-.66,1.1,1.1,0,0,0-.8-.25,1,1,0,0,0-.77.25,1.32,1.32,0,0,0-.35.66,4.91,4.91,0,0,0-.08.89v6.56a4.31,4.31,0,0,0,.08.9,1.22,1.22,0,0,0,.33.67A1.11,1.11,0,0,0,147.42,98.64Z" style="fill:#263238"></path><path d="M157.32,100.68a4.66,4.66,0,0,1-2.45-.54,2.87,2.87,0,0,1-1.23-1.56,7.69,7.69,0,0,1-.35-2.47V86.62h2.79V96.5a6.66,6.66,0,0,0,.08,1,1.54,1.54,0,0,0,.34.81,1,1,0,0,0,.82.31,1.07,1.07,0,0,0,.83-.31,1.62,1.62,0,0,0,.33-.81,6.67,6.67,0,0,0,.07-1V86.62h2.79v9.49a7.69,7.69,0,0,1-.35,2.47,2.83,2.83,0,0,1-1.23,1.56A4.62,4.62,0,0,1,157.32,100.68Z" style="fill:#263238"></path><path d="M163.31,100.49V86.62h3.6a8.06,8.06,0,0,1,2.4.32,2.77,2.77,0,0,1,1.54,1.12,4,4,0,0,1,.54,2.23,7.54,7.54,0,0,1-.14,1.51,3,3,0,0,1-.52,1.15,2.43,2.43,0,0,1-1,.78l1.92,6.76h-2.9l-1.59-6.28h-1v6.28Zm2.83-8H167a2.23,2.23,0,0,0,1.08-.22,1.25,1.25,0,0,0,.55-.68,3.3,3.3,0,0,0,.17-1.12,2.48,2.48,0,0,0-.36-1.46,1.48,1.48,0,0,0-1.31-.51h-1Z" style="fill:#263238"></path><path d="M177.52,100.49V86.62h4.41a3.93,3.93,0,0,1,2,.47,2.91,2.91,0,0,1,1.18,1.36,5.6,5.6,0,0,1,.38,2.16,4.58,4.58,0,0,1-.5,2.33,2.8,2.8,0,0,1-1.38,1.19,5.23,5.23,0,0,1-2,.35h-1.28v6Zm2.83-8h1a1.89,1.89,0,0,0,.95-.2,1,1,0,0,0,.46-.63,4.11,4.11,0,0,0,.12-1.09,4.54,4.54,0,0,0-.1-1.06,1.06,1.06,0,0,0-.42-.67,1.72,1.72,0,0,0-1-.24h-1Z" style="fill:#263238"></path><path d="M185.52,100.49l2.69-13.87h3.13L194,100.49H191.4l-.5-3h-2.19l-.53,3ZM189,95.72h1.67l-.84-5.6Z" style="fill:#263238"></path><path d="M198.91,100.68a4.34,4.34,0,0,1-2.14-.47,3,3,0,0,1-1.29-1.42,6.46,6.46,0,0,1-.5-2.42l2.43-.41a6.77,6.77,0,0,0,.18,1.43,1.67,1.67,0,0,0,.44.85,1,1,0,0,0,.75.28.78.78,0,0,0,.74-.34,1.57,1.57,0,0,0,.2-.79,2.45,2.45,0,0,0-.42-1.46,7.41,7.41,0,0,0-1.1-1.19l-1.44-1.25A5.63,5.63,0,0,1,195.5,92a3.88,3.88,0,0,1-.49-2,3.36,3.36,0,0,1,1-2.63,3.94,3.94,0,0,1,2.75-.92,3.82,3.82,0,0,1,1.71.34,2.67,2.67,0,0,1,1,.92A3.71,3.71,0,0,1,202,89a7.83,7.83,0,0,1,.18,1.34l-2.41.36a10.41,10.41,0,0,0-.11-1.11,1.52,1.52,0,0,0-.31-.75.86.86,0,0,0-.7-.28.82.82,0,0,0-.73.37,1.47,1.47,0,0,0-.24.81,2,2,0,0,0,.33,1.21,5.83,5.83,0,0,0,.92,1l1.4,1.23a7.93,7.93,0,0,1,1.5,1.72,4.3,4.3,0,0,1,.63,2.39A3.47,3.47,0,0,1,202,99a3.21,3.21,0,0,1-1.24,1.24A3.87,3.87,0,0,1,198.91,100.68Z" style="fill:#263238"></path><path d="M207.34,100.68a4.32,4.32,0,0,1-2.14-.47,3,3,0,0,1-1.29-1.42,6.65,6.65,0,0,1-.51-2.42l2.43-.41a8.39,8.39,0,0,0,.18,1.43,1.76,1.76,0,0,0,.45.85,1,1,0,0,0,.74.28.78.78,0,0,0,.75-.34,1.57,1.57,0,0,0,.2-.79,2.45,2.45,0,0,0-.42-1.46,7.07,7.07,0,0,0-1.11-1.19l-1.44-1.25A6,6,0,0,1,203.92,92a4,4,0,0,1-.48-2,3.36,3.36,0,0,1,1-2.63,3.92,3.92,0,0,1,2.75-.92,3.88,3.88,0,0,1,1.71.34,2.64,2.64,0,0,1,1,.92,3.73,3.73,0,0,1,.52,1.25,7.83,7.83,0,0,1,.18,1.34l-2.42.36a10.41,10.41,0,0,0-.11-1.11,1.44,1.44,0,0,0-.31-.75.82.82,0,0,0-.69-.28.84.84,0,0,0-.74.37,1.47,1.47,0,0,0-.24.81,2,2,0,0,0,.34,1.21,6.17,6.17,0,0,0,.91,1l1.41,1.23a8.21,8.21,0,0,1,1.5,1.72,4.38,4.38,0,0,1,.62,2.39,3.56,3.56,0,0,1-.44,1.76,3.21,3.21,0,0,1-1.24,1.24A3.87,3.87,0,0,1,207.34,100.68Z" style="fill:#263238"></path><path d="M213.64,100.49l-1.8-13.87h2.4l1,8.48,1.22-8.46h1.9l1.27,8.44,1-8.46h2.36l-1.78,13.87h-2.4l-1.35-8.78-1.29,8.78Z" style="fill:#263238"></path><path d="M228.27,100.68a4.57,4.57,0,0,1-2.42-.55,3,3,0,0,1-1.27-1.56,6.86,6.86,0,0,1-.39-2.44V91a6.8,6.8,0,0,1,.39-2.43A3,3,0,0,1,225.85,87a4.77,4.77,0,0,1,2.42-.53,4.72,4.72,0,0,1,2.44.54A3,3,0,0,1,232,88.53a6.71,6.71,0,0,1,.39,2.42v5.18a6.86,6.86,0,0,1-.39,2.44,3,3,0,0,1-1.28,1.56A4.62,4.62,0,0,1,228.27,100.68Zm0-2a1.14,1.14,0,0,0,.8-.24,1.24,1.24,0,0,0,.35-.67,5.11,5.11,0,0,0,.08-.9V90.27a4.91,4.91,0,0,0-.08-.89,1.24,1.24,0,0,0-.35-.66,1.1,1.1,0,0,0-.8-.25,1.05,1.05,0,0,0-.77.25,1.23,1.23,0,0,0-.34.66,4.13,4.13,0,0,0-.09.89v6.56a5.11,5.11,0,0,0,.08.9,1.22,1.22,0,0,0,.33.67A1.13,1.13,0,0,0,228.27,98.64Z" style="fill:#263238"></path><path d="M234.26,100.49V86.62h3.6a8.09,8.09,0,0,1,2.41.32,2.81,2.81,0,0,1,1.54,1.12,4,4,0,0,1,.54,2.23,6.83,6.83,0,0,1-.15,1.51,3.09,3.09,0,0,1-.51,1.15,2.47,2.47,0,0,1-1,.78l1.92,6.76h-2.9l-1.59-6.28h-1v6.28Zm2.83-8h.82a2.17,2.17,0,0,0,1.08-.22,1.26,1.26,0,0,0,.56-.68,3.59,3.59,0,0,0,.16-1.12,2.56,2.56,0,0,0-.35-1.46,1.49,1.49,0,0,0-1.31-.51h-1Z" style="fill:#263238"></path><path d="M244.2,100.49V86.62h3.39a6.62,6.62,0,0,1,2.75.46,2.65,2.65,0,0,1,1.39,1.42,6.25,6.25,0,0,1,.41,2.47v5a6.59,6.59,0,0,1-.41,2.54,2.7,2.7,0,0,1-1.38,1.46,6.15,6.15,0,0,1-2.69.47Zm2.82-2h.6a2,2,0,0,0,1.12-.24,1.09,1.09,0,0,0,.42-.74,6.87,6.87,0,0,0,.09-1.21V90.61a5,5,0,0,0-.11-1.15,1.08,1.08,0,0,0-.45-.65,2.24,2.24,0,0,0-1.09-.2H247Z" style="fill:#263238"></path><path d="M127.25,266.06a3.06,3.06,0,0,1-1.69-.4,2.07,2.07,0,0,1-.87-1.12,5,5,0,0,1-.25-1.66v-3.46a5.14,5.14,0,0,1,.25-1.71,2,2,0,0,1,.87-1.11,3.16,3.16,0,0,1,1.69-.39,3.19,3.19,0,0,1,1.62.35,1.88,1.88,0,0,1,.83,1,4.06,4.06,0,0,1,.24,1.46v.8H128v-.9a6,6,0,0,0,0-.62,1,1,0,0,0-.2-.48.71.71,0,0,0-.55-.18.74.74,0,0,0-.57.19.89.89,0,0,0-.22.49,3.51,3.51,0,0,0,0,.67v4.37a3.65,3.65,0,0,0,.06.7.85.85,0,0,0,.25.46.76.76,0,0,0,.53.16.7.7,0,0,0,.54-.18.91.91,0,0,0,.2-.49,4.63,4.63,0,0,0,0-.65v-.94h1.9v.79a4.27,4.27,0,0,1-.24,1.49,2,2,0,0,1-.82,1A3,3,0,0,1,127.25,266.06Z" style="fill:#e8e8e8"></path><path d="M131.16,265.93v-9.6h2v3.95h1.69v-3.95h2v9.6h-2v-4.25h-1.69v4.25Z" style="fill:#e8e8e8"></path><path d="M137.78,265.93l1.86-9.6h2.17l1.85,9.6h-1.82l-.34-2.11H140l-.37,2.11Zm2.38-3.3h1.15l-.58-3.88Z" style="fill:#e8e8e8"></path><path d="M144.56,265.93v-9.6h1.36l2.14,5v-5h1.61v9.6h-1.3l-2.14-5.31v5.31Z" style="fill:#e8e8e8"></path><path d="M153.58,266.08a2.6,2.6,0,0,1-1.54-.41,2.23,2.23,0,0,1-.81-1.16,5.83,5.83,0,0,1-.24-1.75v-3.22a5.9,5.9,0,0,1,.24-1.78,2.17,2.17,0,0,1,.88-1.15,3.13,3.13,0,0,1,1.69-.4,3.29,3.29,0,0,1,1.63.35,2,2,0,0,1,.86,1,3.93,3.93,0,0,1,.26,1.49v.56h-1.91v-.68a4.47,4.47,0,0,0,0-.67.74.74,0,0,0-.22-.45.77.77,0,0,0-.55-.17.74.74,0,0,0-.57.2,1.08,1.08,0,0,0-.23.52,4.73,4.73,0,0,0,0,.67v4.25a3.29,3.29,0,0,0,.07.73.9.9,0,0,0,.27.5.83.83,0,0,0,.56.17.8.8,0,0,0,.57-.19,1,1,0,0,0,.28-.51,3.38,3.38,0,0,0,.07-.74v-1h-.93V261h2.7v4.93h-1.28l-.12-.86a1.83,1.83,0,0,1-.57.72A1.65,1.65,0,0,1,153.58,266.08Z" style="fill:#e8e8e8"></path><path d="M157.91,265.93v-9.6h4.18v1.35h-2.22v2.55h1.72v1.36h-1.72v3h2.25v1.32Z" style="fill:#e8e8e8"></path><path d="M166.07,265.93v-9.6h3a2.74,2.74,0,0,1,1.42.33,2,2,0,0,1,.81.94,3.71,3.71,0,0,1,.26,1.49,3.09,3.09,0,0,1-.35,1.62,1.94,1.94,0,0,1-.95.82,3.75,3.75,0,0,1-1.39.24H168v4.16Zm2-5.53h.69a1.3,1.3,0,0,0,.66-.14.67.67,0,0,0,.31-.43,2.68,2.68,0,0,0,.09-.76,3.79,3.79,0,0,0-.07-.74.75.75,0,0,0-.29-.46,1.22,1.22,0,0,0-.71-.16H168Z" style="fill:#e8e8e8"></path><path d="M171.6,265.93l1.87-9.6h2.17l1.85,9.6h-1.82l-.34-2.11h-1.52l-.37,2.11Zm2.39-3.3h1.15l-.58-3.88Z" style="fill:#e8e8e8"></path><path d="M180.88,266.06a3,3,0,0,1-1.49-.32,2.1,2.1,0,0,1-.89-1,4.46,4.46,0,0,1-.35-1.67l1.68-.29a4.87,4.87,0,0,0,.13,1,1.1,1.1,0,0,0,.31.59.67.67,0,0,0,.51.2.55.55,0,0,0,.52-.24,1.05,1.05,0,0,0,.13-.54,1.68,1.68,0,0,0-.29-1,5.13,5.13,0,0,0-.76-.82l-1-.87a4.21,4.21,0,0,1-.87-1,2.7,2.7,0,0,1-.34-1.39,2.32,2.32,0,0,1,.7-1.82,2.67,2.67,0,0,1,1.9-.64,2.6,2.6,0,0,1,1.19.24,1.89,1.89,0,0,1,.71.63,2.76,2.76,0,0,1,.36.87,4.94,4.94,0,0,1,.12.93l-1.67.25a7.34,7.34,0,0,0-.08-.77,1,1,0,0,0-.21-.52.59.59,0,0,0-.48-.19.56.56,0,0,0-.51.25,1,1,0,0,0-.17.56,1.39,1.39,0,0,0,.24.84,3.84,3.84,0,0,0,.63.68l1,.86a5.15,5.15,0,0,1,1,1.19,3,3,0,0,1,.43,1.65,2.38,2.38,0,0,1-.31,1.22,2.16,2.16,0,0,1-.86.86A2.64,2.64,0,0,1,180.88,266.06Z" style="fill:#e8e8e8"></path><path d="M186.71,266.06a3,3,0,0,1-1.48-.32,2.07,2.07,0,0,1-.9-1,4.46,4.46,0,0,1-.35-1.67l1.69-.29a4.31,4.31,0,0,0,.12,1,1.18,1.18,0,0,0,.31.59.69.69,0,0,0,.52.2.53.53,0,0,0,.51-.24,1.06,1.06,0,0,0,.14-.54,1.75,1.75,0,0,0-.29-1,5.23,5.23,0,0,0-.77-.82l-1-.87a4,4,0,0,1-.88-1,2.7,2.7,0,0,1-.33-1.39,2.34,2.34,0,0,1,.69-1.82,2.68,2.68,0,0,1,1.9-.64,2.57,2.57,0,0,1,1.19.24,1.85,1.85,0,0,1,.72.63,2.74,2.74,0,0,1,.35.87,5.94,5.94,0,0,1,.13.93l-1.68.25a7.56,7.56,0,0,0-.07-.77,1,1,0,0,0-.22-.52.67.67,0,0,0-1,.06,1,1,0,0,0-.16.56,1.39,1.39,0,0,0,.23.84,3.84,3.84,0,0,0,.63.68l1,.86a5.35,5.35,0,0,1,1,1.19,3,3,0,0,1,.44,1.65,2.48,2.48,0,0,1-.31,1.22,2.22,2.22,0,0,1-.86.86A2.68,2.68,0,0,1,186.71,266.06Z" style="fill:#e8e8e8"></path><path d="M191.07,265.93l-1.24-9.6h1.66l.66,5.87.84-5.86h1.32l.88,5.85.66-5.86h1.64l-1.24,9.6H194.6l-.94-6.08-.89,6.08Z" style="fill:#e8e8e8"></path><path d="M201.2,266.06a3.11,3.11,0,0,1-1.67-.38,2.12,2.12,0,0,1-.89-1.08,5,5,0,0,1-.26-1.69v-3.58a4.86,4.86,0,0,1,.26-1.68,2.05,2.05,0,0,1,.89-1.07,3.21,3.21,0,0,1,1.67-.37,3.39,3.39,0,0,1,1.69.37,2.13,2.13,0,0,1,.89,1.07,4.63,4.63,0,0,1,.26,1.68v3.58a4.73,4.73,0,0,1-.26,1.69,2.12,2.12,0,0,1-.89,1.08A3.18,3.18,0,0,1,201.2,266.06Zm0-1.41a.77.77,0,0,0,.56-.17A.91.91,0,0,0,202,264a3,3,0,0,0,.06-.62v-4.54a3,3,0,0,0-.06-.62,1,1,0,0,0-.23-.46.81.81,0,0,0-.56-.17.73.73,0,0,0-.53.17.89.89,0,0,0-.24.46,3,3,0,0,0-.06.62v4.54a4,4,0,0,0,0,.62.91.91,0,0,0,.23.46A.74.74,0,0,0,201.2,264.65Z" style="fill:#e8e8e8"></path><path d="M205.35,265.93v-9.6h2.49a5.38,5.38,0,0,1,1.66.22,1.91,1.91,0,0,1,1.07.78,2.72,2.72,0,0,1,.38,1.54,4.77,4.77,0,0,1-.11,1.05,1.9,1.9,0,0,1-.35.79,1.67,1.67,0,0,1-.72.54l1.33,4.68h-2L208,261.58h-.68v4.35Zm2-5.51h.56a1.56,1.56,0,0,0,.75-.15.91.91,0,0,0,.39-.47,2.48,2.48,0,0,0,.11-.78,1.77,1.77,0,0,0-.24-1,1,1,0,0,0-.91-.35h-.66Z" style="fill:#e8e8e8"></path><path d="M212.23,265.93v-9.6h2.34a4.87,4.87,0,0,1,1.91.31,1.86,1.86,0,0,1,1,1,4.42,4.42,0,0,1,.29,1.71v3.5a4.56,4.56,0,0,1-.29,1.75,1.93,1.93,0,0,1-.95,1,4.34,4.34,0,0,1-1.87.32Zm2-1.36h.42a1.35,1.35,0,0,0,.77-.17.77.77,0,0,0,.29-.51,5,5,0,0,0,.06-.84v-4a3.48,3.48,0,0,0-.07-.8.69.69,0,0,0-.31-.44,1.47,1.47,0,0,0-.75-.14h-.41Z" style="fill:#e8e8e8"></path><path d="M132.12,190.59a2.38,2.38,0,0,1-1.43-.38,2,2,0,0,1-.7-1,4.75,4.75,0,0,1-.2-1.45v-3.06a5,5,0,0,1,.2-1.53,1.83,1.83,0,0,1,.7-1,2.54,2.54,0,0,1,1.43-.35,2.41,2.41,0,0,1,1.29.3,1.65,1.65,0,0,1,.68.85,3.81,3.81,0,0,1,.21,1.34v.68h-1.14v-.61a7.08,7.08,0,0,0,0-.85,1,1,0,0,0-.26-.57,1.39,1.39,0,0,0-1.47,0,1,1,0,0,0-.3.62,5.18,5.18,0,0,0-.07.93v3.44a4.05,4.05,0,0,0,.1,1,.9.9,0,0,0,.36.54,1.15,1.15,0,0,0,.66.16,1,1,0,0,0,.71-.22,1,1,0,0,0,.26-.6,6,6,0,0,0,.06-.9v-.64h1.14v.64a4.49,4.49,0,0,1-.19,1.39,1.83,1.83,0,0,1-.66.95A2.31,2.31,0,0,1,132.12,190.59Z" style="fill:#263238"></path><path d="M137.67,190.59a2.52,2.52,0,0,1-1.4-.34,1.86,1.86,0,0,1-.75-1,4.45,4.45,0,0,1-.22-1.49v-3.29a4.05,4.05,0,0,1,.23-1.47,1.81,1.81,0,0,1,.75-.94,2.56,2.56,0,0,1,1.39-.32,2.53,2.53,0,0,1,1.39.33,1.85,1.85,0,0,1,.75.94,4.22,4.22,0,0,1,.23,1.46v3.3a4.42,4.42,0,0,1-.23,1.48,2,2,0,0,1-.75,1A2.44,2.44,0,0,1,137.67,190.59Zm0-1a1.1,1.1,0,0,0,.73-.2,1,1,0,0,0,.33-.55,3.49,3.49,0,0,0,.09-.84v-3.8a3.34,3.34,0,0,0-.09-.83,1,1,0,0,0-.33-.54,1.23,1.23,0,0,0-.73-.18,1.25,1.25,0,0,0-.73.18,1,1,0,0,0-.34.54,4,4,0,0,0-.08.83v3.8a4.13,4.13,0,0,0,.08.84,1,1,0,0,0,.34.55A1.11,1.11,0,0,0,137.67,189.64Z" style="fill:#263238"></path><path d="M141.22,190.5v-8.67h.83l2.46,5.76v-5.76h1v8.67h-.77l-2.49-5.92v5.92Z" style="fill:#263238"></path><path d="M146.87,190.5v-8.67h3.35v.87h-2.14v2.89h1.66v.85h-1.66v4.06Z" style="fill:#263238"></path><path d="M151.12,190.5v-8.67h1.19v8.67Z" style="fill:#263238"></path><path d="M153.71,190.5v-8.67h1.74a4,4,0,0,1,1.44.23,1.65,1.65,0,0,1,.84.74,2.83,2.83,0,0,1,.27,1.33,3.74,3.74,0,0,1-.11.92,1.72,1.72,0,0,1-.34.69,1.28,1.28,0,0,1-.62.41l1.23,4.35H157l-1.13-4.07h-.94v4.07Zm1.21-4.94h.46a2.39,2.39,0,0,0,.83-.12.88.88,0,0,0,.47-.44,2.06,2.06,0,0,0,.15-.87,1.71,1.71,0,0,0-.28-1.1,1.4,1.4,0,0,0-1.1-.33h-.53Z" style="fill:#263238"></path><path d="M159.24,190.5l.16-8.67h1.19l1.53,7,1.54-7h1.17l.17,8.67h-1l-.09-6.29-1.47,6.29h-.69l-1.45-6.29-.1,6.29Z" style="fill:#263238"></path><path d="M168.77,190.5v-8.67h2.15a2.49,2.49,0,0,1,1.25.28,1.72,1.72,0,0,1,.68.82,3.58,3.58,0,0,1,.21,1.3,2.78,2.78,0,0,1-.24,1.19,1.76,1.76,0,0,1-.71.77,2.34,2.34,0,0,1-1.18.27h-1v4Zm1.21-4.9h.56a2.25,2.25,0,0,0,.82-.12.79.79,0,0,0,.43-.41,2.25,2.25,0,0,0,.13-.83,3.79,3.79,0,0,0-.09-1,.64.64,0,0,0-.38-.46,2.31,2.31,0,0,0-.9-.13H170Z" style="fill:#263238"></path><path d="M173,190.5l1.84-8.67H176l1.85,8.67h-1.15l-.39-2.19h-1.77l-.42,2.19Zm1.71-3.05h1.45l-.73-3.91Z" style="fill:#263238"></path><path d="M180.81,190.59a2.21,2.21,0,0,1-1.25-.32,2,2,0,0,1-.75-.89,3.46,3.46,0,0,1-.3-1.31l1.07-.29a5.16,5.16,0,0,0,.14.89,1.68,1.68,0,0,0,.37.7,1.1,1.1,0,0,0,1.43,0,1.1,1.1,0,0,0,.24-.76,1.52,1.52,0,0,0-.27-.94,4.9,4.9,0,0,0-.67-.72l-1.46-1.29a2.54,2.54,0,0,1-.63-.82,2.69,2.69,0,0,1-.2-1.09,2,2,0,0,1,.54-1.48,2.07,2.07,0,0,1,1.49-.52,2.75,2.75,0,0,1,.9.13,1.72,1.72,0,0,1,.66.41,2.09,2.09,0,0,1,.41.7,3.45,3.45,0,0,1,.21,1l-1,.28a5.92,5.92,0,0,0-.13-.79,1.16,1.16,0,0,0-.34-.57,1.17,1.17,0,0,0-1.39,0,.92.92,0,0,0-.25.71,1.39,1.39,0,0,0,.13.65,2,2,0,0,0,.44.53l1.46,1.28a4.79,4.79,0,0,1,.87,1,2.6,2.6,0,0,1,.37,1.41,2.17,2.17,0,0,1-.27,1.11,1.78,1.78,0,0,1-.73.71A2.31,2.31,0,0,1,180.81,190.59Z" style="fill:#263238"></path><path d="M185.87,190.59a2.21,2.21,0,0,1-1.25-.32,2,2,0,0,1-.75-.89,3.66,3.66,0,0,1-.3-1.31l1.07-.29a5.16,5.16,0,0,0,.14.89,1.68,1.68,0,0,0,.37.7,1.1,1.1,0,0,0,1.43,0,1.1,1.1,0,0,0,.24-.76,1.52,1.52,0,0,0-.27-.94,4.9,4.9,0,0,0-.67-.72l-1.46-1.29a2.54,2.54,0,0,1-.63-.82,2.69,2.69,0,0,1-.2-1.09,2,2,0,0,1,.54-1.48,2.07,2.07,0,0,1,1.49-.52,2.75,2.75,0,0,1,.9.13,1.65,1.65,0,0,1,.66.41,2.29,2.29,0,0,1,.42.7,3.85,3.85,0,0,1,.2,1l-1,.28a4.65,4.65,0,0,0-.13-.79,1.16,1.16,0,0,0-.34-.57,1.17,1.17,0,0,0-1.39,0,.92.92,0,0,0-.25.71,1.39,1.39,0,0,0,.13.65,2,2,0,0,0,.44.53l1.46,1.28a4.79,4.79,0,0,1,.87,1,2.6,2.6,0,0,1,.37,1.41,2.17,2.17,0,0,1-.27,1.11,1.78,1.78,0,0,1-.73.71A2.31,2.31,0,0,1,185.87,190.59Z" style="fill:#263238"></path><path d="M190,190.5l-1.41-8.67h1l.93,6.23,1.17-6.2h.85l1.18,6.23.91-6.26h1l-1.39,8.67h-.87l-1.21-6.42-1.22,6.42Z" style="fill:#263238"></path><path d="M198.81,190.59a2.52,2.52,0,0,1-1.4-.34,1.86,1.86,0,0,1-.75-1,4.45,4.45,0,0,1-.22-1.49v-3.29a4.05,4.05,0,0,1,.23-1.47,1.81,1.81,0,0,1,.75-.94,2.56,2.56,0,0,1,1.39-.32,2.53,2.53,0,0,1,1.39.33,1.91,1.91,0,0,1,.75.94,4.22,4.22,0,0,1,.23,1.46v3.3a4.42,4.42,0,0,1-.23,1.48,2.06,2.06,0,0,1-.75,1A2.44,2.44,0,0,1,198.81,190.59Zm0-1a1.11,1.11,0,0,0,.73-.2,1,1,0,0,0,.33-.55,3.49,3.49,0,0,0,.09-.84v-3.8a3.34,3.34,0,0,0-.09-.83,1,1,0,0,0-.33-.54,1.57,1.57,0,0,0-1.46,0,1,1,0,0,0-.34.54,3.38,3.38,0,0,0-.08.83v3.8a3.52,3.52,0,0,0,.08.84,1,1,0,0,0,.34.55A1.11,1.11,0,0,0,198.81,189.64Z" style="fill:#263238"></path><path d="M202.36,190.5v-8.67h1.75a3.89,3.89,0,0,1,1.43.23,1.57,1.57,0,0,1,.84.74,2.83,2.83,0,0,1,.27,1.33,3.76,3.76,0,0,1-.1.92,1.73,1.73,0,0,1-.35.69,1.24,1.24,0,0,1-.62.41l1.23,4.35h-1.16l-1.14-4.07h-.94v4.07Zm1.21-4.94H204a2.45,2.45,0,0,0,.84-.12.92.92,0,0,0,.47-.44,2.06,2.06,0,0,0,.15-.87,1.77,1.77,0,0,0-.28-1.1,1.41,1.41,0,0,0-1.1-.33h-.54Z" style="fill:#263238"></path><path d="M207.92,190.5v-8.67h1.88a3.23,3.23,0,0,1,1.52.3,1.7,1.7,0,0,1,.81.88,3.88,3.88,0,0,1,.24,1.46v3.19a4.39,4.39,0,0,1-.24,1.55,1.93,1.93,0,0,1-.79,1,2.76,2.76,0,0,1-1.45.33Zm1.2-.87h.69a1.37,1.37,0,0,0,.94-.26,1.15,1.15,0,0,0,.34-.75,9.82,9.82,0,0,0,.06-1.18v-2.82a5.35,5.35,0,0,0-.09-1.09.93.93,0,0,0-.37-.61,1.69,1.69,0,0,0-.91-.19h-.66Z" style="fill:#263238"></path></g><g id="freepik--Icon--inject-22"><path d="M396,65.92a33.06,33.06,0,1,1-33.05-33.06A32.9,32.9,0,0,1,396,65.92Z" style="fill:#263238"></path><path d="M362.93,99.47a33.58,33.58,0,0,1-33.56-33.55,33.55,33.55,0,1,1,33.56,33.55Zm0-66.11a32.55,32.55,0,0,0-20.11,58.15,32.14,32.14,0,0,0,20.11,7,32.56,32.56,0,0,0,0-65.11Z" style="fill:#263238"></path><path d="M376.73,60.74a13.8,13.8,0,1,0-13.8,13.81A13.8,13.8,0,0,0,376.73,60.74Z" style="fill:#fff"></path><path d="M362.93,75.05a14.31,14.31,0,1,1,14.3-14.31A14.32,14.32,0,0,1,362.93,75.05Zm0-27.61a13.31,13.31,0,1,0,13.3,13.3A13.31,13.31,0,0,0,362.93,47.44Z" style="fill:#263238"></path><path d="M383.34,91.9a33,33,0,0,1-40.83,0,20.9,20.9,0,0,1,40.83,0Z" style="fill:#fff"></path><path d="M362.93,99.47a33.08,33.08,0,0,1-20.73-7.18.49.49,0,0,1-.18-.49,21.4,21.4,0,0,1,41.81,0,.49.49,0,0,1-.18.49A33.51,33.51,0,0,1,362.93,99.47ZM343.07,91.7a32.09,32.09,0,0,0,19.86,6.77,32.51,32.51,0,0,0,19.85-6.77,20.4,20.4,0,0,0-39.71,0Z" style="fill:#263238"></path></g><g id="freepik--Padlock--inject-22"><path d="M342.64,343.48V247.33a42.29,42.29,0,1,1,84.57,0v96.15h17.45V247.33a59.81,59.81,0,0,0-59.74-59.74h0a59.81,59.81,0,0,0-59.74,59.74v96.15Z" style="fill:#263238"></path><rect x="316.49" y="301.65" width="142.39" height="159.05" style="fill:#b2b2b2"></rect><polygon points="458.88 315.18 316.49 457.57 316.49 460.7 330.72 460.7 458.88 332.55 458.88 315.18" style="fill:#fff"></polygon><polygon points="316.49 341.26 316.49 393.24 408.08 301.65 356.1 301.65 316.49 341.26" style="fill:#fff"></polygon><path d="M458.88,461.2H316.49a.5.5,0,0,1-.5-.5v-159a.5.5,0,0,1,.5-.5H458.88a.5.5,0,0,1,.5.5V460.7A.5.5,0,0,1,458.88,461.2ZM317,460.2H458.38v-158H317Z" style="fill:#263238"></path><rect x="428.91" y="301.65" width="29.97" height="159.05" style="fill:#263238"></rect><path d="M458.88,461.2h-30a.5.5,0,0,1-.5-.5v-159a.5.5,0,0,1,.5-.5h30a.5.5,0,0,1,.5.5V460.7A.5.5,0,0,1,458.88,461.2Zm-29.47-1h29v-158h-29Z" style="fill:#263238"></path><path d="M376.57,364.58a10,10,0,1,0-13.88,9.19l-1.83,21.67h11.47l-1.84-21.67A10,10,0,0,0,376.57,364.58Z" style="fill:#263238"></path><path d="M372.33,395.94H360.86a.51.51,0,0,1-.37-.16.48.48,0,0,1-.13-.38l1.8-21.32a10.48,10.48,0,1,1,8.86,0l1.8,21.32a.45.45,0,0,1-.13.38A.48.48,0,0,1,372.33,395.94Zm-10.93-1h10.38L370,373.81a.5.5,0,0,1,.3-.5,9.48,9.48,0,1,0-7.42,0,.51.51,0,0,1,.31.5Z" style="fill:#263238"></path></g></svg>