<svg xmlns="http://www.w3.org/2000/svg" data-name="Layer 1" viewBox="0 0 512 512"><path fill="#ff8585" d="M314.5 284.323V404.5a100 100 0 0 0 100 100h66a24 24 0 0 0 24-24v-16.337a335.006 335.006 0 0 0-79.685-216.887l-62.124-73.133a27.348 27.348 0 0 0-20.843-9.643 27.348 27.348 0 0 0-27.348 27.348v47.475"/><path fill="#ff7070" d="m424.815 247.276-62.124-73.133a27.344 27.344 0 0 0-30.847-7.747 27.337 27.337 0 0 1 10.847 7.747l62.124 73.133A335.006 335.006 0 0 1 484.5 464.163V480.5a24 24 0 0 1-24 24h20a24 24 0 0 0 24-24v-16.337a335.006 335.006 0 0 0-79.685-216.887Z"/><path fill="#ff8585" d="M197.5 284.323V404.5a100 100 0 0 1-100 100h-66a24 24 0 0 1-24-24v-16.337a335.006 335.006 0 0 1 79.685-216.887l62.124-73.133a27.348 27.348 0 0 1 20.843-9.643 27.348 27.348 0 0 1 27.348 27.348v92.475Z"/><path fill="#ff7070" d="M170.152 164.5a27.331 27.331 0 0 0-9.996 1.896 27.35 27.35 0 0 1 17.344 25.452V404.5a100 100 0 0 1-100 100h20a100 100 0 0 0 100-100V191.848a27.348 27.348 0 0 0-27.348-27.348Z"/><path fill="#f66" d="m265.867 241.846 106.781 93.265 8.228-46.543-94.243-73.585a15 15 0 0 1-5.133-11.298V6a6 6 0 0 0-6-6h-39a6 6 0 0 0-6 6v197.685a15 15 0 0 1-5.133 11.298l-96.275 74.352 7.324 44.482 109.717-91.97a15 15 0 0 1 19.734 0Z"/><path fill="#313440" d="m430.531 242.42-62.124-73.133A34.848 34.848 0 0 0 307 191.848v30.966l-15.434-13.48a7.5 7.5 0 0 1-2.566-5.648V7.5a7.5 7.5 0 0 0-15 0v10.286h-36V7.5a7.5 7.5 0 0 0-15 0v196.186a7.5 7.5 0 0 1-2.566 5.648L205 222.814v-30.966a34.848 34.848 0 0 0-61.407-22.56L81.468 242.42A342.862 342.862 0 0 0 0 464.163V480.5A31.536 31.536 0 0 0 31.5 512h66A107.622 107.622 0 0 0 205 404.5V287.73l46.066-40.235a7.527 7.527 0 0 1 9.868 0L307 287.73V404.5A107.622 107.622 0 0 0 414.5 512h66a31.536 31.536 0 0 0 31.5-31.5v-16.337a342.86 342.86 0 0 0-81.469-221.743ZM238 32.786h36v15h-36Zm0 30h36v15h-36Zm0 30h36v15h-36Zm0 30h36v15h-36Zm0 30h36v15h-36ZM190 404.5A92.605 92.605 0 0 1 97.5 497h-66A16.519 16.519 0 0 1 15 480.5v-16.337a327.848 327.848 0 0 1 77.9-212.032l62.125-73.133A19.848 19.848 0 0 1 190 191.848v44.068l-61.602 53.805-51.374 28.54a7.5 7.5 0 1 0 7.285 13.113l39.51-21.95-5.913 58.15-57.62 40.457a7.5 7.5 0 1 0 8.62 12.276l49.829-34.986 5.245 57.175a7.5 7.5 0 0 0 7.46 6.815q.344 0 .694-.032a7.5 7.5 0 0 0 6.784-8.154l-6.362-69.346 2.927-28.786 20.498 32.14a7.5 7.5 0 1 0 12.646-8.065l-19.484-30.55L190 300.831Zm80.801-168.303a22.583 22.583 0 0 0-29.602 0l-100.213 87.53-3.056-4.793 1.966-19.34 90.406-78.963A22.498 22.498 0 0 0 238 203.686v-20.9h36v20.9a22.498 22.498 0 0 0 7.699 16.946l90.405 78.961 1.966 19.341-3.056 4.792ZM497 480.5a16.519 16.519 0 0 1-16.5 16.5h-66a92.605 92.605 0 0 1-92.5-92.5V300.832l40.857 35.685-19.484 30.55a7.5 7.5 0 1 0 12.646 8.066l20.498-32.14 2.927 28.786-6.362 69.346a7.5 7.5 0 0 0 6.784 8.154q.35.033.694.032a7.501 7.501 0 0 0 7.46-6.815l5.245-57.175 49.83 34.986a7.5 7.5 0 0 0 8.618-12.276l-57.62-40.456-5.913-58.151 39.51 21.95a7.5 7.5 0 1 0 7.286-13.112l-51.374-28.541L322 235.916v-44.068a19.848 19.848 0 0 1 34.975-12.85l62.125 73.133A327.848 327.848 0 0 1 497 464.163Z"/></svg>