<svg xmlns="http://www.w3.org/2000/svg" xmlns:xlink="http://www.w3.org/1999/xlink" width="26" height="26"><defs><linearGradient id="a"><stop offset="0" stop-color="#24f7bc"/><stop offset="1" stop-color="#24c4fc"/></linearGradient><linearGradient id="b" x1="949.87" x2="974.39" y1="518.014" y2="544.657" gradientTransform="matrix(.833 0 0 .833 -787.774 596.81)" gradientUnits="userSpaceOnUse" xlink:href="#a"/></defs><g transform="translate(0 -1026.362)"><rect width="26" height="26" y="1026.362" fill="url(#b)" rx="5.495" ry="5.495"/><path fill="#fff" d="M13.219 1033.456c-1.105 0-1.969 1.038-1.969 1.906v5.094a2.824 2.824 0 0 0-.844 2 2.817 2.817 0 0 0 2.813 2.812c1.536 0 2.781-1.263 2.781-2.812 0-.74-.302-1.465-.844-2v-.531H16.5c.193 0 .344-.182.344-.375a.34.34 0 0 0-.344-.344h-1.344v-.906H16.5a.34.34 0 0 0 .344-.344.34.34 0 0 0-.344-.344h-1.344v-.969H16.5c.193 0 .344-.182.344-.375a.34.34 0 0 0-.344-.343h-1.344v-.563c0-.868-.847-1.906-1.937-1.906zm0 .719c.705 0 1.218.724 1.219 1.187v5.25c0 .1.05.184.124.25.465.411.75 1.004.75 1.594a2.094 2.094 0 0 1-2.093 2.094c-1.165 0-2.125-.931-2.125-2.094 0-.59.285-1.183.75-1.594.075-.066.094-.15.094-.25v-5.25c0-.474.548-1.188 1.28-1.188zm-.063 3.53a.34.34 0 0 0-.344.345v3.218c-.49.16-.843.643-.843 1.188 0 .675.542 1.219 1.219 1.219.671 0 1.186-.532 1.187-1.22 0-.573-.364-1.046-.875-1.187v-3.218a.34.34 0 0 0-.344-.344zm.031 4.22c.28 0 .5.236.5.53 0 .296-.22.5-.5.5-.285 0-.53-.214-.53-.5 0-.29.24-.53.53-.53z"/></g></svg>